<?xml version="1.0" encoding="UTF-8"?>
<svg id="Layer_2" data-name="Layer 2" xmlns="http://www.w3.org/2000/svg" viewBox="0 0 72.26 18.56">
  <defs>
    <style>
      .cls-1 {
        fill: #fcfefe;
      }

      .cls-1, .cls-2 {
        stroke-width: 0px;
      }

      .cls-2 {
        fill: var(--cloud-shadow, #fff);
        transition: fill var(--fill-transition, 1s);

      }
    </style>
  </defs>
  <g id="Layer_1-2" data-name="Layer 1">
    <path class="cls-1" d="M.51,13.65c.77-1.47,2.26-1.87,3.63-2.37,1.99-.72,4.12-.86,6.17-.55,2.34.36,3.86-1.01,5.49-2.13,2.34-1.6,4.93-2.2,7.68-2.28.84-.03,1.33-.3,1.84-1.05C28.3.82,32.64-.5,37.75.16c3.97.51,7.25,2.29,9.83,5.36.46.54,1.03.84,1.8.75,3.51-.39,6.91.15,9.87,2.08,1.74,1.14,3.62,1.56,5.54,2.06,1.74.45,3.48.87,4.99,1.97.87.64,1.58,1.33,1.95,2.35-.16.7-.75.65-1.2.55-2.17-.47-4.19.27-6.24.73-.59.13-1.17.18-1.72-.11-2.9-1.51-6.01-1.88-9.22-1.68-.89.05-1.63-.22-2.43-.65-1.24-.68-2.2-1.75-3.48-2.35-2.72-1.28-5.5-2.29-8.6-1.91-.45.05-.91-.02-1.36.01-2.27.14-4.42.78-6.41,1.84-1.53.82-2.85,2.09-4.83,1.69-2.87-.57-5.63.18-8.4.83-1.43.34-2.65,1.32-4.26,1.1-3.6-.49-7.22-.37-10.82,0-1.02.1-1.74-.25-2.24-1.12Z"/>
    <path class="cls-2" d="M.51,13.65c.5.87,1.23,1.22,2.24,1.12,3.61-.36,7.22-.49,10.82,0,1.61.22,2.84-.76,4.26-1.1,2.76-.65,5.53-1.4,8.4-.83,1.97.39,3.3-.87,4.83-1.69,1.99-1.07,4.14-1.71,6.41-1.84.45-.03.91.04,1.36-.01,3.09-.38,5.88.64,8.6,1.91,1.28.6,2.23,1.67,3.48,2.35.8.43,1.54.71,2.43.65,3.21-.2,6.32.17,9.22,1.68.55.29,1.13.24,1.72.11,2.05-.45,4.07-1.19,6.24-.73.46.1,1.04.15,1.2-.55.78.33.57.82.18,1.29-.68.82-1.56,1.38-2.59,1.66-3.99,1.06-8.04.73-12.1.49-5.08-.29-10.12-1.19-15.26-.26-4.44.8-8.93.85-13.48.25-3.59-.47-7.27-.53-10.96-.25-4.7.36-9.49.64-14.08-1.01-.89-.32-1.85-.61-2.56-1.18-.54-.43-1.46-1.18-.37-2.08Z"/>
  </g>
</svg>
