<?xml version="1.0" encoding="UTF-8"?>
<svg id="Layer_2" data-name="Layer 2" xmlns="http://www.w3.org/2000/svg" viewBox="0 0 72.23 18.56">
  <defs>
    <style>
      .cls-1 {
        fill: #fcfefe;
      }

      .cls-1, .cls-2 {
        stroke-width: 0px;
      }

      .cls-2 {
        fill: var(--cloud-shadow, #fff);
        transition: fill var(--fill-transition, 1s);

      }
    </style>
  </defs>
  <g id="Layer_1-2" data-name="Layer 1">
    <path class="cls-1" d="M.55,13.64c.62-1.15,1.78-1.64,2.88-2.06,1.82-.71,3.75-1.13,5.72-.87,2.52.34,4.64-.38,6.6-1.98,2.23-1.82,4.97-2.26,7.76-2.4.81-.04,1.33-.33,1.84-1.07C28.56.66,32.64-.54,38.05.2c3.51.48,6.51,2.03,8.93,4.67.9.99,1.9,1.33,3.41,1.31,3.53-.06,7.01.55,9.97,2.83,1.3,1,2.99.95,4.49,1.4,1.94.57,3.97.96,5.48,2.49.04.32.24.49.56.51.02.07.03.15.04.23-.02.29.08.52.26.75.18.23.58.45.27.78-.14.15-.53.17-.77.1-1.66-.51-3.21-.05-4.8.37-1.07.28-2.16.84-3.3.29-2.97-1.42-6.09-1.98-9.36-1.7-.84.07-1.53-.22-2.28-.67-1.37-.83-2.61-1.83-4.04-2.61-3.4-1.84-7-1.91-10.58-1.51-1.69.19-3.6.42-5.1,1.6-1.77,1.39-3.73,2.17-6.05,1.84-.76-.11-1.54,0-2.31-.02-2.11-.05-4.1.36-6.05,1.22-1.5.67-3.07.82-4.76.53-2.03-.34-4.09-.6-6.21-.19-1.26.24-2.58.49-3.91.36-.74-.07-1.36-.22-1.39-1.13Z"/>
    <path class="cls-2" d="M.55,13.64c.04.91.65,1.06,1.39,1.13,1.33.13,2.65-.11,3.91-.36,2.11-.41,4.17-.15,6.21.19,1.7.28,3.26.13,4.76-.53,1.94-.86,3.94-1.27,6.05-1.22.77.02,1.56-.08,2.31.02,2.32.33,4.28-.45,6.05-1.84,1.5-1.18,3.41-1.41,5.1-1.6,3.58-.4,7.18-.33,10.58,1.51,1.43.77,2.67,1.78,4.04,2.61.74.45,1.43.74,2.28.67,3.28-.29,6.39.28,9.36,1.7,1.14.55,2.24-.01,3.3-.29,1.59-.42,3.14-.88,4.8-.37.23.07.62.05.77-.1.31-.32-.09-.55-.27-.78-.18-.22-.28-.46-.26-.75,1.67.99,1.74,2.12.16,3.18-1.15.77-2.47,1.07-3.82,1.3-3.28.57-6.56.3-9.84.1-5.26-.33-10.48-1.23-15.79-.27-4.36.79-8.75.76-13.21.21-3.59-.44-7.27-.51-10.95-.24-4.65.34-9.41.67-13.96-1-.93-.34-1.91-.66-2.69-1.22-.63-.46-1.35-1.23-.28-2.07Z"/>
  </g>
</svg>
