<?xml version="1.0" encoding="UTF-8"?>
<svg id="Layer_2" data-name="Layer 2" xmlns="http://www.w3.org/2000/svg" viewBox="0 0 218.21 46.84">
  <defs>
    <style>
      .cls-1 {
        fill: #fcfefe;
      }

      .cls-1, .big2clr2, .cls-3 {
        stroke-width: 0px;
      }

      .big2clr2 {
        fill: #94d3f3;
      }

      .cls-3 {
        fill: var(--cloud-shadow, #fff);
        transition: fill var(--fill-transition, 1s);
      }
    </style>
  </defs>
  <g id="Layer_1-2" data-name="Layer 1">
    <path class="cls-1" d="M216.58,31.87c.09.6-.21,1.02-.75,1.12-1.18.23-2.26.77-3.53.78-2.32.03-4.62-.24-6.92-.39-1.38-.09-2.79-.11-4.18-.36-3.8-.7-7.55-.29-11.27.65-2.09.53-4.11,1.52-6.35,1.12-1.95-.36-3.91-.74-5.84-1.18-4.03-.92-7.98-.56-11.83.74-1.4.48-2.72.53-4.13.32-2.27-.35-4.5-1.12-6.84-.93-1.39.11-2.78.35-4.16.52-2.26.28-4.25-.74-6.28-1.39-4.43-1.42-8.79-1.32-13.17.14-1.03.35-2.03.28-2.96-.44-1.56-1.22-3.25-2.22-4.99-3.2-3.56-2.01-7.52-2.46-11.38-3.18-2.32-.44-4.78-.22-7.18-.32-3.66-.16-7.27.37-10.91.94-6.17.98-11.83,3.07-17.16,6.22-1.32.78-2.72,1.5-4.36,1.24-3.88-.61-7.64-.12-11.35,1.08-1.16.37-2.32.83-3.57.29-1.11-.48-2.3-.75-3.47-1.08-2.53-.7-5.06-1.35-7.69-1.37-7.35-.06-14.62.53-21.78,2.27-2.47.6-5.03.85-7.5-.12-3.37-1.32-6.88-1.43-10.44-1.36-1.35.02-2.71-.14-4.06-.28-.33-.03-.66-.25-.9-.51l-1.56.16c.11-.49.36-.97.76-1.43,1.54-1.81,3.66-2.13,5.81-2.53,1.41-.26,2.78.04,4.17.02,1.56-.02,2.88-.31,3.93-1.61.38-.46.99-1.18,1.85-.59.09-.01.19-.01.29-.02.08-.08.17-.15.26-.23l.04-.02c.34-.06.69-.13,1.03-.21.62-.12,1.25-.25,1.87-.28,1.57-.07,2.85-.42,3.67-1.95.27-.49.76-1.09,1.53-1.23.41-.07.52-.57.58-.98,2.09-1.58,4.55-2.28,7.05-2.66,8.3-1.26,16.52-.86,24.58,1.64.74.23,1.21.2,1.75-.49,3.04-3.91,7.18-5.65,12.04-5.83.71-.02,1.15-.2,1.5-.87,1.86-3.49,4.75-5.99,7.96-8.18,5.56-3.8,11.84-5.11,18.44-5.75,6.43-.62,12.51.72,18.33,2.98,5.49,2.14,9.13,6.54,11.49,11.92.48,1.1.8,1.45,2.24,1.16,5.48-1.14,10.53-.16,14.56,4.09.6.63,1.13.74,1.92.36,5.17-2.46,10.34-2.15,15.49.1,1.02.44,1.98.75,3.21.26,1.67-.67,3.47-1.1,5.25-1.36,2.53-.38,4.94.36,6.94,1.83,1.92,1.41,3.94,2.15,6.28,2.19.38.01.84.15,1.14.38,1.68,1.32,3.62,1.25,5.61,1.25,2.98.01,5.65,1.17,8.06,2.86,1.16.83,2.27,1.11,3.74,1,4.6-.32,9,.61,13.14,2.7Z"/>
    <path class="cls-3" d="M218.21,33.86c.07,1.01-.78,1.08-1.56,1.31-3.2.93-6.46,1.42-9.78,1.21-2.57-.16-5.12-.51-7.68-.75-3.02-.28-5.78.97-8.67,1.47-5.52.94-11.06,1.02-16.62.25-1.49-.2-2.91-.15-4.35.61-3.66,1.93-7.63,2.99-11.63,4.01-4.29,1.09-8.64,1.52-13.02,1.49-2.3-.01-4.61-.13-6.92-.22-1.83-.07-3.45.47-5.08,1.21-2.84,1.29-5.89,1.67-8.95,2.1-3.31.47-6.65.37-9.81-.39-4.09-.99-8,.33-12,.14-3.02-.15-5.94-.69-8.75-1.7-1.75-.62-3.4-1.05-5.23-.33-1.45.57-3.08.68-4.57.75-5.31.25-10.72.8-15.72-1.83-.98-.51-1.97-.16-2.92.06-3.92.87-7.71.32-11.48-.85-2.02-.62-3.97-.59-6.08.08-1.25.39-2.79.47-4.25.34-1.15-.1-2.33.08-3.5.17-2.66.2-5.32.3-7.99.26-4.89-.08-9.69-.62-14.28-2.49-.95-.38-1.96-.75-3.04-.36-.16.06-.39.09-.53.02-2.92-1.53-6.32-1.43-9.32-2.67-1.15-.48-2.21-1.19-3.42-1.57.07-.09.13-.18.19-.27-.03-.02-.06-.05-.09-.07-.04.11-.08.22-.11.33-.88-.9-1.2-1.87-.98-2.82l1.56-.16c.24.26.57.48.9.51,1.35.14,2.71.3,4.06.28,3.56-.07,7.07.04,10.44,1.36,2.47.97,5.03.72,7.5.12,7.16-1.74,14.43-2.33,21.78-2.27,2.63.02,5.16.67,7.69,1.37,1.17.33,2.36.6,3.47,1.08,1.25.54,2.41.08,3.57-.29,3.71-1.2,7.47-1.69,11.35-1.08,1.64.26,3.04-.46,4.36-1.24,5.33-3.15,10.99-5.24,17.16-6.22,3.64-.57,7.25-1.1,10.91-.94,2.4.1,4.86-.12,7.18.32,3.86.72,7.82,1.17,11.38,3.18,1.74.98,3.43,1.98,4.99,3.2.93.72,1.93.79,2.96.44,4.38-1.46,8.74-1.56,13.17-.14,2.03.65,4.02,1.67,6.28,1.39,1.38-.17,2.77-.41,4.16-.52,2.34-.19,4.57.58,6.84.93,1.41.21,2.73.16,4.13-.32,3.85-1.3,7.8-1.66,11.83-.74,1.93.44,3.89.82,5.84,1.18,2.24.4,4.26-.59,6.35-1.12,3.72-.94,7.47-1.35,11.27-.65,1.39.25,2.8.27,4.18.36,2.3.15,4.6.42,6.92.39,1.27-.01,2.35-.55,3.53-.78.54-.1.84-.52.75-1.12,1.24.09,1.56,1.01,1.63,1.99Z"/>
    <path class="cls-3" d="M17.14,26.96c-.09.08-.18.16-.27.24.09-.08.18-.16.27-.24Z"/>
    <path class="big2clr2" d="M1.04,36.17c.04-.11.07-.22.11-.33.03.02.07.04.1.07-.06.09-.13.18-.19.28,0,0-.01-.01-.01-.01Z"/>
  </g>
</svg>
