<?xml version="1.0" encoding="UTF-8"?>
<svg id="Layer_2" data-name="Layer 2" xmlns="http://www.w3.org/2000/svg" viewBox="0 0 37.59 10.44">
  <defs>
    <style>
      .cls-1 {
        fill: #fcfefe;
      }

      .cls-1, .cls-2 {
        stroke-width: 0px;
      }

      .cls-2 {
        fill: var(--cloud-shadow, #fff);
        transition: fill var(--fill-transition, 1s);

      }
    </style>
  </defs>
  <g id="Layer_1-2" data-name="Layer 1">
    <path class="cls-1" d="M1.17,6.72c1.53-.95,3.18-1.38,4.99-1.44,1.27-.04,2.06-1.23,3.09-1.85,1.73-1.05,3.62-1.38,5.55-1.6.83-.09,1.59-.28,2.32-.66,2.97-1.53,5.91-1.58,8.87.08,1.67.94,3.26,1.93,5.36,2.06,1.76.11,3.47.98,5.2,1.51.43,1.49.26,1.77-1.3,2.19-1.17.32-2.34.39-3.48.01-1.37-.45-2.68-.27-3.97.24-.72.28-1.3.26-2.04-.14-3.25-1.72-6.65-1.98-10.08-.58-2.15.88-4.22,1.73-6.65,1.26-2.22-.43-4.24,1.1-6.53.85-1.08-.12-1.7-.34-1.9-1.41,0,0,0,0,0,0,.33-.02.51-.19.56-.52Z"/>
    <path class="cls-2" d="M.61,7.23c.2,1.07.83,1.3,1.9,1.41,2.29.25,4.31-1.28,6.53-.85,2.43.47,4.5-.39,6.65-1.26,3.42-1.4,6.83-1.14,10.08.58.74.39,1.32.42,2.04.14,1.29-.51,2.59-.69,3.97-.24,1.14.38,2.32.31,3.48-.01,1.56-.43,1.74-.71,1.3-2.19.76.17,1.01.79,1.03,1.42.02.65-.53,1.07-1.08,1.27-2.15.79-4.33,1.57-6.66,1.61-1.34.03-2.6.38-3.85.7-3.71.95-7.42.64-11.14.22-1.31-.15-2.6.06-3.9.12-2.84.13-5.7.32-8.52-.25-.6-.12-1.24-.38-1.72-.77-.64-.52-1.19-1.21-.12-1.91Z"/>
    <path class="cls-2" d="M1.17,6.72c-.05.32-.23.5-.56.52.03-.34.2-.52.56-.52Z"/>
  </g>
</svg>
