<?xml version="1.0" encoding="UTF-8"?>
<svg id="Layer_2" data-name="Layer 2" xmlns="http://www.w3.org/2000/svg" viewBox="0 0 37.86 10.64">
  <defs>
    <style>
      .cls-1 {
        fill: #fcfefe;
      }

      .cls-1, .cls-2 {
        stroke-width: 0px;
      }

      .cls-2 {
        fill: var(--cloud-shadow, #fff);
        transition: fill var(--fill-transition, 1s);

      }
    </style>
  </defs>
  <g id="Layer_1-2" data-name="Layer 1">
    <path class="cls-1" d="M2.21,6.28c1.08-.45,2.16-.86,3.37-.93.97-.05,1.86-.37,2.66-1.11,1.88-1.74,4.32-2.13,6.76-2.34.65-.06,1.23-.21,1.8-.51,3.72-1.92,7.31-2.01,10.71.75.37.3.89.42,1.34.62.09.3.29.45.61.43.53.02,1.06.03,1.59.05.09.34.2.63.56.2.44.04.88.08,1.33.13.43.58.94.9,1.66.5.17.02.35.03.52.05.09.32.28.47.62.43.52.03.97.19,1.3.61.11.77-.24,1.25-.87,1.68-1.1.75-2.27.55-3.41.33-1.53-.29-3.01-.43-4.53.02-.97.29-2.02.26-2.92-.23-3.39-1.86-6.76-1.44-10.19-.14-1.71.65-3.35,1.45-5.33,1.08-1.46-.28-2.92.16-4.39.58-1.66.47-3.46.52-4.88-.91.35-.3.61-.71,1.1-.8.31,0,.5-.16.58-.46Z"/>
    <path class="cls-2" d="M.53,7.55c1.41,1.42,3.21,1.38,4.88.91,1.47-.42,2.93-.85,4.39-.58,1.98.37,3.62-.43,5.33-1.08,3.42-1.3,6.8-1.72,10.19.14.9.49,1.95.52,2.92.23,1.53-.45,3.01-.31,4.53-.02,1.14.21,2.31.41,3.41-.33.64-.43.98-.91.87-1.68.59.29.97.72.75,1.4-.2.61-.57,1.05-1.25,1.31-2.68,1.01-5.49,1.34-8.28,1.8-3.39.56-6.77,1.27-10.21.87-2.58-.31-5.17-.41-7.71-.15-2.93.3-5.74.08-8.58-.59-.69-.16-1.13-.56-1.51-1.06-.33-.43-.45-.93.26-1.17Z"/>
    <path class="cls-2" d="M34.6,4.05c-.72.41-1.23.08-1.66-.5.58.07,1.18.08,1.66.5Z"/>
    <path class="cls-2" d="M29.46,3.18c-.32.02-.52-.12-.61-.43.36-.09.53.1.61.43Z"/>
    <path class="cls-2" d="M31.62,3.43c-.36.43-.47.15-.56-.2.22-.03.42,0,.56.2Z"/>
    <path class="cls-2" d="M2.21,6.28c-.08.3-.27.46-.58.46.05-.34.21-.53.58-.46Z"/>
    <path class="cls-2" d="M35.74,4.53c-.33.04-.53-.11-.62-.43.35-.07.52.12.62.43Z"/>
  </g>
</svg>
