<?xml version="1.0" encoding="UTF-8"?>
<svg id="Layer_2" data-name="Layer 2" xmlns="http://www.w3.org/2000/svg" viewBox="0 0 168.85 40.99">
  <defs>
    <style>
      .cls-1 {
        fill: #fcfefe;
      }

      .cls-1, .cls-2 {
        stroke-width: 0px;
      }

      .cls-2 {
        fill: var(--cloud-shadow, #fff);
        transition: fill var(--fill-transition, 1s);

      }
    </style>
  </defs>
  <g id="Layer_1-2" data-name="Layer 1">
    <path class="cls-1" d="M.38,34.69c.15-.99.91-1.53,1.61-2.09,3.59-2.85,7.8-3.91,12.27-4.12,1.68-.08,3.36-.01,5.04,0,.52,0,.97-.04,1.28-.56,2.06-3.32,5.38-4.74,8.94-5.68,1.7-.45,3.46-.72,5.25-.6.56.04.99-.08,1.41-.58,2.15-2.56,4.95-3.86,8.27-4.01,2.13-.1,4.26,0,6.35.48.58.13,1.03-.02,1.49-.43,2.4-2.14,5.28-2.88,8.42-2.77.79.03,1.32-.15,1.78-.9,3-4.81,7.33-8.05,12.46-10.31,3.2-1.41,6.51-2.48,10-2.86,8.5-.91,16.47.48,23.29,5.96,3.55,2.85,6.34,6.43,8.29,10.58.94,2.02,2.94,2.36,4.63,3.19.38.19.77-.21,1.11-.41,4.66-2.78,9.45-2.2,14.25-.5,1.63.58,3.05,1.6,4.36,2.72.74.64,1.5.75,2.38.67,4.62-.46,8.07,1.38,10.36,5.38.43.75,1.11.78,1.73.85,2.58.27,4.81,1.2,6.59,3.13.41.45.96.62,1.56.74,1.61.34,3.27.6,4.51,1.86-.02,1.15-.7,1.19-1.58,1-2.41-.53-4.71-1.61-7.21-1.66-1.7-.03-3.37.12-5.05-.49-4.08-1.48-8.31-2.14-12.67-1.84-1.74.12-5.44-.48-6.93-1.21-3.5-1.7-7.21-2.52-11.06-2.92-3.59-.37-7.12-.45-10.6.72-1.26.42-2.47.5-3.73-.34-2.99-1.99-6.26-3.39-9.8-4.07-2.03-.39-4-1.09-6.1-1.17-5.59-.22-11.02.53-16.41,2.09-3.37.98-6.55,2.18-9.49,4.09-.83.54-1.62,1.22-2.78,1.25-2.16.06-4.32.33-6.48.48-2,.14-3.89.65-5.7,1.49-.89.41-1.76.98-2.83.6-3.03-1.07-6.11-.81-9,.25-1.39.5-2.68.71-4.07.65-4.42-.18-8.76.19-13,1.59-1.64.54-3.34.61-5.02-.04-2.44-.94-4.97-.61-7.32.11-2.56.77-5.09,1.31-7.74,1.05-1.11-.11-2.38-.14-3.06-1.36Z"/>
    <path class="cls-2" d="M.38,34.69c.68,1.22,1.95,1.24,3.06,1.36,2.64.26,5.18-.27,7.74-1.05,2.36-.71,4.88-1.04,7.32-.11,1.68.65,3.38.58,5.02.04,4.24-1.4,8.57-1.77,13-1.59,1.38.05,2.68-.15,4.07-.65,2.89-1.05,5.97-1.32,9-.25,1.07.38,1.93-.19,2.83-.6,1.81-.84,3.7-1.35,5.7-1.49,2.16-.15,4.32-.42,6.48-.48,1.16-.03,1.95-.71,2.78-1.25,2.94-1.91,6.12-3.11,9.49-4.09,5.39-1.56,10.82-2.31,16.41-2.09,2.1.08,4.07.78,6.1,1.17,3.54.68,6.81,2.09,9.8,4.07,1.27.84,2.48.77,3.73.34,3.48-1.17,7.01-1.09,10.6-.72,3.85.4,7.56,1.21,11.06,2.92,1.49.72,5.19,1.33,6.93,1.21,4.36-.3,8.59.36,12.67,1.84,1.68.61,3.35.46,5.05.49,2.51.05,4.8,1.13,7.21,1.66.88.19,1.57.15,1.58-1,.91.32.9,1.05.75,1.79-.15.73-.77.63-1.31.68-.54.05-1.08.28-1.6.23-3.71-.38-7.26.56-10.85,1.17-4.88.81-9.76.59-14.56-.42-4.53-.95-9.01-1.18-13.59-.5-2.65.39-5.33-.12-7.99-.3-5.17-.35-10.28-.47-15.27,1.44-3.08,1.18-6.41,1.49-9.68,1.92-5.1.68-10.22.55-15.33.54-2.72,0-5.39-.51-8.09-.71-2.8-.21-5.63-.01-8.44-.13-5.51-.24-11.02-.5-16.42-1.76-1.07-.25-2.09.06-3.08.26-4.77.95-9.58,1.41-14.43,1.21-3.62-.14-7.15-1.02-10.69-1.71-.95-.19-1.9-.18-2.84-.15-3.63.09-7.24-.21-10.84-.58-.93-.1-1.88-.38-2.72-.79-.71-.35-1.54-.91-.66-1.92Z"/>
  </g>
</svg>
