<?xml version="1.0" encoding="UTF-8"?>
<svg id="Layer_2" data-name="Layer 2" xmlns="http://www.w3.org/2000/svg" viewBox="0 0 61.89 16.12">
  <defs>
    <style>
      .cls-1 {
        fill: #fcfefe;
      }

      .cls-1, .cls-2 {
        stroke-width: 0px;
      }

      .cls-2 {
        fill: var(--cloud-shadow, #fff);
        transition: fill var(--fill-transition, 1s);

      }
    </style>
  </defs>
  <g id="Layer_1-2" data-name="Layer 1">
    <path class="cls-1" d="M1.35,10.91c1.12-.6,2.28-1.08,3.51-1.38,1.59-.39,2.54-1.71,3.78-2.59,1.95-1.37,4.02-2.24,6.35-2.5.79-.09,1.34-.39,1.87-.93C20.88-.57,25.96-.61,30.71.96c1.92,2.37,4.66,1.42,7.08,1.79,2.87.43,5.71,1.17,7.51,3.6.98,1.32,2.06,1.25,3.35,1.33,3.99.25,7.92.83,11.49,2.81.52.29,1.05.55,1.18,1.22.34.99-.37,1.33-1.04,1.23-1.32-.18-2.64.02-3.93-.18-3.63-.56-7.21-.07-10.82.23-1.15.1-2.36.38-3.46-.24-2.15-1.23-4.4-1.73-6.88-1.21-1.35.28-2.72.8-4.1.02-4.04-2.27-8.17-1.89-12.45-.66-2.4.69-4.72,2.11-7.35,1.61-2.74-.52-5.43-.64-8.18-.02-.85.19-1.96.15-2.34-1.07.12-.16.24-.33.36-.49.06,0,.13,0,.2-.02Z"/>
    <path class="cls-2" d="M.79,11.42c.38,1.23,1.49,1.26,2.34,1.07,2.75-.61,5.44-.49,8.18.02,2.63.5,4.95-.92,7.35-1.61,4.27-1.23,8.41-1.61,12.45.66,1.38.78,2.75.26,4.1-.02,2.47-.52,4.72-.02,6.88,1.21,1.1.63,2.3.34,3.46.24,3.6-.3,7.19-.79,10.82-.23,1.29.2,2.62,0,3.93.18.67.09,1.37-.25,1.04-1.23.88.39.54,1.03.27,1.58-.37.78-1.02,1.27-1.88,1.41-1.11.19-2.23.54-3.33.5-4.94-.18-9.79,1.16-14.73.88-4.32-.25-8.61-1.08-12.97-.85-3.88.2-7.73.72-11.64.61-2.44-.06-4.71-.82-7.05-1.23-1.8-.31-3.5.26-5.26.12-1.14-.09-2.24-.28-3.33-.58-.77-.21-1.23-.77-1.37-1.53-.11-.59.06-1.09.76-1.21Z"/>
    <path class="cls-2" d="M1.35,10.91c-.06.01-.13.02-.2.02.05-.17.12-.14.2-.02Z"/>
  </g>
</svg>
