<?xml version="1.0" encoding="UTF-8"?>
<svg id="Layer_2" data-name="Layer 2" xmlns="http://www.w3.org/2000/svg" viewBox="0 0 433.12 744.69">
  <defs>
    <style>
      .ralph-cls-1 {
        fill: #18160e;
      }

      .ralph-cls-1, .ralph-cls-2, .ralph-cls-3, .ralph-cls-4, .ralph-cls-5, .ralph-cls-6, .ralph-cls-7, .ralph-cls-8, .ralph-cls-9, .ralph-cls-10, .ralph-cls-11, .ralph-cls-12, .ralph-cls-13, .ralph-cls-14, .ralph-cls-15, .ralph-cls-16, .ralph-cls-17, .ralph-cls-18, .ralph-cls-19, .ralph-cls-20, .ralph-cls-21, .ralph-cls-22, .ralph-cls-23, .ralph-cls-24, .ralph-cls-25, .ralph-cls-26, .ralph-cls-27, .ralph-cls-28, .ralph-cls-29, .ralph-cls-30, .ralph-cls-31, .ralph-cls-32, .ralph-cls-33, .ralph-cls-34, .ralph-cls-35, .ralph-cls-36, .ralph-cls-37, .ralph-cls-38, .ralph-cls-39, .ralph-cls-40, .ralph-cls-41, .ralph-cls-42, .ralph-cls-43, .ralph-cls-44, .ralph-cls-45, .ralph-cls-46, .ralph-cls-47, .ralph-cls-48, .ralph-cls-49, .ralph-cls-50, .ralph-cls-51, .ralph-cls-52, .ralph-cls-53, .ralph-cls-54, .ralph-cls-55, .ralph-cls-56, .ralph-cls-57, .ralph-cls-58, .ralph-cls-59, .ralph-cls-60, .ralph-cls-61, .ralph-cls-62, .ralph-cls-63, .ralph-cls-64, .ralph-cls-65, .ralph-cls-66, .ralph-cls-67, .ralph-cls-68, .ralph-cls-69, .ralph-cls-70, .ralph-cls-71, .ralph-cls-72, .ralph-cls-73, .ralph-cls-74, .ralph-cls-75, .ralph-cls-76, .ralph-cls-77, .ralph-cls-78, .ralph-cls-79, .ralph-cls-80, .ralph-cls-81, .ralph-cls-82, .ralph-cls-83, .ralph-cls-84, .ralph-cls-85 {
        stroke-width: 0px;
      }

      .ralph-cls-2 {
        fill: #2c2a1d;
      }

      .ralph-cls-3 {
        fill: #fefefe;
      }

      .ralph-cls-4 {
        fill: #88a9ba;
      }

      .ralph-cls-5 {
        fill: #fddd0b;
      }

      .ralph-cls-6 {
        fill: #688899;
      }

      .ralph-cls-7 {
        fill: #2d2a1a;
      }

      .ralph-cls-8 {
        fill: #1c1a0b;
      }

      .ralph-cls-9 {
        fill: #2e2a0e;
      }

      .ralph-cls-10 {
        fill: #828485;
      }

      .ralph-cls-11 {
        fill: #393737;
      }

      .ralph-cls-12 {
        fill: #b2b2b2;
      }

      .ralph-cls-13 {
        fill: #24210d;
      }

      .ralph-cls-14 {
        fill: #222014;
      }

      .ralph-cls-15 {
        fill: #638497;
      }

      .ralph-cls-16 {
        fill: #f3e49d;
      }

      .ralph-cls-17 {
        fill: #c9a92d;
      }

      .ralph-cls-18 {
        fill: #282615;
      }

      .ralph-cls-19 {
        fill: #353332;
      }

      .ralph-cls-20 {
        fill: #ecdd9d;
      }

      .ralph-cls-21 {
        fill: #302e2d;
      }

      .ralph-cls-22 {
        fill: #15140e;
      }

      .ralph-cls-23 {
        fill: #84a2b5;
      }

      .ralph-cls-24 {
        fill: #0f0c0b;
      }

      .ralph-cls-25 {
        fill: #fbdb0e;
      }

      .ralph-cls-26 {
        fill: #393412;
      }

      .ralph-cls-27 {
        fill: #1c1d1d;
      }

      .ralph-cls-28 {
        fill: #f6d716;
      }

      .ralph-cls-29 {
        fill: #28240d;
      }

      .ralph-cls-30 {
        fill: #454554;
      }

      .ralph-cls-31 {
        fill: #1a1a1a;
      }

      .ralph-cls-32 {
        fill: #2c2e23;
      }

      .ralph-cls-33 {
        fill: #748ba7;
      }

      .ralph-cls-34 {
        fill: #ca5332;
      }

      .ralph-cls-35 {
        fill: #312f2b;
      }

      .ralph-cls-36 {
        fill: #678899;
      }

      .ralph-cls-37 {
        fill: #353434;
      }

      .ralph-cls-38 {
        fill: #29260c;
      }

      .ralph-cls-39 {
        fill: #343434;
      }

      .ralph-cls-40 {
        fill: #f3e29a;
      }

      .ralph-cls-41 {
        fill: #848586;
      }

      .ralph-cls-42 {
        fill: #747778;
      }

      .ralph-cls-43 {
        fill: #f5e5a0;
      }

      .ralph-cls-44 {
        fill: #353111;
      }

      .ralph-cls-45 {
        fill: #662419;
      }

      .ralph-cls-46 {
        fill: #c1a62d;
      }

      .ralph-cls-47 {
        fill: #e9da96;
      }

      .ralph-cls-48 {
        fill: #262422;
      }

      .ralph-cls-49 {
        fill: #f3d31d;
      }

      .ralph-cls-50 {
        fill: #282511;
      }

      .ralph-cls-51 {
        fill: #87a8b9;
      }

      .ralph-cls-52 {
        fill: #302c10;
      }

      .ralph-cls-53 {
        fill: #345465;
      }

      .ralph-cls-54 {
        fill: #345667;
      }

      .ralph-cls-55 {
        fill: #f3e4a0;
      }

      .ralph-cls-56 {
        fill: #668798;
      }

      .ralph-cls-57 {
        fill: #2c2b2a;
      }

      .ralph-cls-58 {
        fill: #231f20;
      }

      .ralph-cls-59 {
        fill: #302e24;
      }

      .ralph-cls-60 {
        fill: #893522;
      }

      .ralph-cls-61 {
        fill: #fddc0c;
      }

      .ralph-cls-62 {
        fill: #fae9a6;
      }

      .ralph-cls-63 {
        fill: #fada0f;
      }

      .ralph-cls-64 {
        fill: #988932;
      }

      .ralph-cls-65 {
        fill: #2e2d20;
      }

      .ralph-cls-66 {
        fill: #568197;
      }

      .ralph-cls-67 {
        fill: #562415;
      }

      .ralph-cls-68 {
        fill: #cbaa2d;
      }

      .ralph-cls-69 {
        fill: #383731;
      }

      .ralph-cls-70 {
        fill: #20272d;
      }

      .ralph-cls-71 {
        fill: #e2d48b;
      }

      .ralph-cls-72 {
        fill: #27292f;
      }

      .ralph-cls-73 {
        fill: #3f391a;
      }

      .ralph-cls-74 {
        fill: #33302d;
      }

      .ralph-cls-75 {
        fill: #454556;
      }

      .ralph-cls-76 {
        fill: #1d1b12;
      }

      .ralph-cls-77 {
        fill: #28261e;
      }

      .ralph-cls-78 {
        fill: #2e2c2d;
      }

      .ralph-cls-79 {
        fill: #c95332;
      }

      .ralph-cls-80 {
        fill: #0d1012;
      }

      .ralph-cls-81 {
        fill: #991d1f;
      }

      .ralph-cls-82 {
        fill: #322e0e;
      }

      .ralph-cls-83 {
        fill: #373213;
      }

      .ralph-cls-84 {
        fill: #31302a;
      }

      .ralph-cls-85 {
        fill: #312d15;
      }
    </style>
  </defs>
  <g id="Layer_1-2" data-name="Layer 1">
    <g>
      <path class="ralph-cls-1" d="M150.6,3.96c3.65-1.48,8.08-.76,11.12-3.96,17.95,0,35.9,0,53.86,0,15.25,3.77,30.51,7.5,45.75,11.34,8.6,2.17,17.17,4.49,24.78,9.33-1.24,1.81-2.48,3.62-3.72,5.44-4.25-1.59-7.85-5.37-13.01-3.87-2.1-5.25-3.83-.68-5.7.21-8.92-6.4-18.23-12.01-29.16-14.23-2.1-.43-4.83-2.42-6.04,1.42-.71.58-1.43,1.15-2.14,1.73-2.98-2.01-5.96-4.02-8.93-6.04-3.9-4.16-5.2.74-7.49,2.16-2.35-.62-3.35-4.56-6.76-2.84.5,3.95.99,7.78,1.48,11.62-.51,2.04.27,4.47-1.86,6.01-.79-3.85-1.56-7.71-2.36-11.56-1.41-6.77-4.65-9.62-11.24-5.2-1.23-.55-2.46-1.11-3.69-1.66-4.22.65-8.8-1.36-12.7,1.71-3.62-1.73-7.25-3.29-11-.29-4.31.07-5.46,4.75-8.89,6.11-.72-.59-1.44-1.19-2.16-1.78,0,0,.24-.24.24-.24,2.35-1.98.28-3.64-.4-5.4Z"/>
      <path class="ralph-cls-24" d="M260.26,727.87c.65,6.43-4.47,8.34-8.66,10.66-13.75,7.59-28.65,6.66-43.44,5.05-23.05-2.51-45.56-8.01-68.07-13.37-15.78-3.76-31.66-5.17-47.82-3.58-15.22,1.49-30.27.51-44.98-3.82-19.26-5.66-24.29-16.94-15.93-35.34,1.27-2.81,2.67-5.61,4.41-8.14,3.03-4.43,4.81-7.97-.68-12.48-4.5-3.7-3.19-9.4-1.82-14.76,8.7-33.99,10.05-68.44,6.29-103.24-.47-4.38-2.25-7.48-4.95-10.54C8.04,508.05-2.07,472.4.34,432.7c.19-3.06.11-6.89,1.83-8.97,7.9-9.49,3.39-21.5,7.13-31.72,1-2.73-.69-4.68-1.7-6.86.72-.64,1.44-1.27,2.15-1.91,4.82,4.07,10.49,6.12,16.56,7.64,27.71,6.94,55.59,13.06,83.67,18.27,15.52,2.52,30.98,6.48,46.59,7.29,41.63,2.15,83.29,10.69,125.01-.99,11.71-3.28,24.48-2.8,36.76-3.99,6.75-.65,14.79-3.77,19.99-1.2,10.18,5.03,17.53-.34,25.92-2.92,12.8-5.28,14.19-7.75,11.45-20.55-.46-2.14-1.03-4.21,1.27-5.7,3.7,3.17,4.14,7.81,3.7,11.86-2.36,22,3.82,43.86.41,67.26,8.3-4.96,17.05-7.22,21.74-15.62,2.65-2.46,2.14-5.29,1.39-8.45-7.91-33.28-18.05-65.8-32.75-96.76-1.18-2.48-1.04-6.52-5.48-6.33-4.34-17.76-15.74-31.68-25.48-46.46-1.58-2.39-2.6,1.52-4.18,1.81-6.86-8.6-13.72-17.21-20.58-25.81.59-.69,1.18-1.37,1.77-2.06,9.85,7.51,13.61,22.69,30,23.62-4.06-7.09-7.69-13.44-11.33-19.79.68-.68,1.36-1.36,2.04-2.04,4.77,7.49,12.42,14.5,13.79,22.57,4.56,26.94,23.18,47.14,31.87,72.06,9.03,25.9,17.83,51.77,24.08,78.48,1.16,4.97,2.04,9.64-2.6,13.54-5.29,4.45.45,9.15-.04,13.75-.63.82-1.26,1.64-1.89,2.47-1.15-2.78-2.32-5.55-3.44-8.34-1.69-4.19-2.89-.85-4.24.26-11.59,3.61-19.38,10.38-20.97,23.32-.5,4.1-2.94,8.09-5.02,11.83-2.95,5.31-2.52,7.67,4.32,7.3,3.84-.21,8.29-1.57,11.86,1.99-2.78,2.5-8.47-.4-8.47,5.66,0,9.88.21,19.75,3.38,29.21,1.82,5.43,5.49,7.99,11.36,5.48,6.55-.33,7.59-5.8,8.71-10.34,1.91-7.73,2.93-15.68,4.33-23.54,2.75,2.79.85,6.43,1.72,9.57.39,6.32-1.46,12.24-3.46,18.07-3.62,10.53-12.18,13.83-21.86,8.29-2.21-1.27-3.2-2.35-6.07-.46-10.66,7.01-12.99,6.89-26.13,1.32-1.03,32.01-.92,63.67,6,94.94.46,2.1,1.61,4.76.8,6.32-5.51,10.67,2.94,10.74,9.18,12.98,12.14,4.36,24.44,8.39,35.83,14.62-.77.71-1.55,1.43-2.32,2.14-10.33-3.85-20.66-7.7-30.98-11.55-8.28-3.56-16.55-7.18-25.85-6.91-23.81,6.5-48.21,8.16-72.73,8.77-11.44-2.14-23.64.32-34.49-3.88-9.92-3.84-12.8,1.38-15.57,8.53-1.22,3.15-2.3,6.37-3.26,9.61-.84,2.82-.93,6.29,2.11,7.28,9.87,3.22,18.01,10.12,28.46,12.26,11.94,2.45,23.87,1.24,35.81,1.64,24.82,3.69,49.11,10.67,74.28,12.09,22.62,1.28,45.41,3.87,67.03-6.09,6.51-3,6.49-7.67,3.36-13.14.78-.78,1.55-1.55,2.33-2.33,6.27,9.24,4.74,15.22-6.05,20.2-16.18,7.46-33.51,7.18-50.81,6.63-29.71-.95-58.55-7.81-87.72-12.56-11.11-1.81-22.7-3.59-33.91.64-.73.71-1.45,1.41-2.18,2.12-23.06-16.55-49.92-24.34-76.3-33.23-4.26-1.44-8.48-.22-12.5,1.54-14.87,2-29.64,4.83-44.68,5.46-19.37.21-38.7.36-57.82-3.9-4.94-1.1-9.99-7.25-14.95-2.21-3.75,3.8-5.77,9.39-8.23,14.35-1.21,2.45-1.99,5.22-2.39,7.94-.89,5.94.56,11.75,5.93,14.54,16.73,8.72,34.64,11.33,53.32,8.47,11.09.32,22.21-1.09,33.27.86,29.05,5.12,57.41,13.74,86.79,17.09,13.62,1.55,27.09,1.4,39.59-5.72,3.51-2,6.15-4.08,5.82-8.48,1.6-.03,2.93.44,3.66,2.01ZM368.14,433.31c9.53-3.18,11.2-8.86,7.81-26.94-3.48.46-5.93,2.69-8.46,4.78-6.45,1.87-12.81,4.17-19.38,5.47-4.52.9-6,2.93-6.28,7.34-.98,15.5-.34,16.17,14.82,12.51,3.86-.93,7.66-2.11,11.49-3.17ZM354.57,518.78c-8.14,10.3-7.41,18.22,2.24,24.38,12.72,4.26,19.84-1.46,18.47-14.61-.67-6.45-.85-12.94-1.28-19.41-.17-2.58,1.03-5.86-3.39-6.21-3.36-.26-6.43-.97-8.4,3.25-2.07,4.43-5.06,8.42-7.64,12.6ZM115.36,414.81c-.48-.38-.93-1.02-1.45-1.09-30.83-4.21-60.96-11.74-91.08-19.27-5.76-1.44-10.43-2.36-10.56,5.61-.1,6.29-5.7,14.35,5.83,17.06,21.87,5.16,43.5,11.39,65.49,15.9,11.1,2.27,21.96,6.22,33.5,6.27,21.86,5.6,44.31,7.33,66.65,8.91,24.56,1.74,49.17,3.47,73.9.66,17.48-1.98,14.91,2.93,15.58-16.37.24-6.78-2.24-8.37-8.52-8.23-50.04,1.13-99.92-.4-149.33-9.46ZM269.48,660.55c25.19,1.43,49.93-1.57,74.37-7.55,7.52-.84,9.78-4.67,8.02-12.14-4.88-20.83-6.72-42.02-6.52-63.41.17-18.24.23-36.47.34-54.71,1.31-2.21,2.62-4.41,3.93-6.62,19.19-22.1,28.06-48.23,29.29-77.08.37-8.55-4.39-3.45-7.46-1.87-10.04,6.14-25.66-.56-32.1,13.96-.18.4-1.09.63-1.67.66-22.42,1.18-44.67,13.53-67.36.88-1.84-1.03-4.83-.07-7.28.13-3.98.32-7.95,1.13-11.92,1.1-20.03-.13-40.03-.03-60.09-1.16-30.51-1.72-60.55-6-90.49-11.57-1.23-.14-2.48-.16-3.68-.45-26.89-6.48-53.78-12.93-80.64-19.53-6.25-1.54-9.73-.35-11,6.86-2.12,12.05-1.16,23.81.26,35.84,3.14,26.59,13.14,49.89,30.64,70.07,3.4,3.92,6.44,7.91,6.98,13.67,3.24,34.58,3.27,68.95-5.32,102.9-2.91,11.49-.2,17.51,10.97,20.97,14.39,4.46,29.1,7.76,44.33,7.59,26.45.83,52.37-2.94,78.02-9.02,8.88-2.92,7.81-9.94,6.55-16.69-3.99-21.54-6.16-43.19-4.55-65.12,2.33-2.58.86-8.06,7.23-7.64,21.99,1.45,43.32-3.66,64.78-7.3,2.25,5.26-2.52,5.05-4.83,5.22-8.47.6-9.85,5.2-10.09,12.89-.54,16.84-2.01,33.68-3.9,50.43-1.25,11.09,1.36,15.48,12.01,16.86,10.35,1.35,20.71,2.45,31.17,1.81ZM176.37,672.89c6.44,2.26,11.95,4.18,17.45,6.12,5.22,1.84,10.93,5.97,15.51,4.95,5.12-1.14,2.89-9.38,5.83-13.94,2.96-4.6,7.56-10.33,6.79-14.74-2.42-13.85,2.32-26.88,2.42-40.35.08-11.29,1.31-22.57,2.05-34.27-13.98,2.96-27.19,4.54-40.43,4.07-7.8-.27-9.25,2.93-9.54,9.66-.84,19.29,1.38,38.25,4.9,57.12,1.41,7.57,1.66,14.79-4.99,21.37ZM276.94,436.75c0,2.17.31,4.39-.05,6.5-1.58,9.29,2.46,12.08,11.27,10.86,11.59-1.61,23.29-2.47,34.91-3.93,15.01-1.88,14.99-2,14.99-17.58,0-4.34-.17-8.69.04-13.02.24-5.02-1.42-6.08-6.59-5.36-14.34,1.99-28.79,3.84-43.24,4.26-8.84.26-12.67,2.77-11.35,11.76.31,2.12.05,4.33.03,6.5Z"/>
      <path class="ralph-cls-80" d="M317.52,260.56c-.59.69-1.18,1.37-1.77,2.06-8-7.45-8.52,1.17-11.17,5.22-4.45,6.29-9,12.52-13.32,18.9-7.52,11.11-7.46,11.14-19.51,5.76-.36-.16-1.02.32-2.17.73,3.61,4.89.47,8.65-2.31,12.32-13.51,17.82-28.02,34.82-45.06,49.31-31.41,26.71-65.98,40.02-106.86,22.73-20.81-10.2-38.62-24.04-52.87-42.52-14.09-18.27-20.27-55.95,4.78-73.47,1.59-1.11,4.48-2.03,2.22-4.86-1.94-2.44-3.87-1-5.49.56-2,1.93-3.95,3.93-5.76,6.04-13.58,15.92-23.89,33.94-31.9,53.12-8.91,21.33-18.31,42.74-16.59,66.8-.72.64-1.44,1.27-2.15,1.91-5.22-6.15-2.68-13.24-1.24-19.45,9.54-41.12,25.16-79.36,54.69-110.63,1.37-1.45,3.35-2.35,1.79-5.3-6.16-11.69-1.91-22.97,4.81-31.96,5.72-7.66,6.21-12.52-.76-18.43.66-.71,1.32-1.42,1.98-2.13,15.04,16.55,35.59,22.77,55.7,29.81,23.68,10.48,48.85,15.43,74.1,20.21,5.21.99,6.96-2.52,9.56-5.32.65.71,1.3,1.42,1.95,2.13-12.63,21.6-29.35,39.63-48.42,55.59-4.3,2.61-8.61,5.21-12.91,7.82-5.21,1.15-9.52,5.65-16.2,4.52,2.79-5.2,8.78-3.97,12.2-8.04-15.75-11.89-30.01-25.49-44.94-38.31-8.8-7.55-26.19-7.95-34.82,4.04-4.2,2.6-6.2,6.69-7.68,11.21-5.42,16.56-3.75,32.42,5.59,47.03,7.01,10.96,16.05,20.19,26.15,28.52,39,32.18,81.76,33.23,121.87,2.45,21.21-16.28,38.34-36.52,54.66-57.51,2.19-2.55,1.07-5.03.03-7.67-2.82-7.2-6.79-13.72-11.26-19.97.64-.7,1.28-1.39,1.93-2.09.78.57,1.56,1.15,2.34,1.72,5.15,8.84,12.21.38,18.16,2.01-1.75,6.28-8.75,3.62-12.54,6.94,2.51,4.04,6.83,4.68,9.97,6.99,5.56,4.09,9.34,3.7,12.94-2.94,4.09-7.55,9.43-14.43,14.18-21.63,3.79-5.73-.33-15.38-6.93-15.43-3.51-.03-7.42,1.06-10.45,2.84-3.47,2.04,1,4.63.72,7.28-.34,3.27.98,6.8-2.29,9.31.1-8.52-5.16-14.82-8.43-22.07-3.14-6.97,2.63-11.15,8.81-14.7.67,3.73-1.59,4.74-2.76,6.33-1.62,2.2-4.13,4.28-2.66,7.33,1.76,3.64,5.32,2.2,8.23,2.12,2.11-.06,4.39-.09,5.72-2.28,5.04-4.58,3.71-10.77,4.19-16.51.65-.17,1.31-.34,1.96-.51,4.77,1.92,9.39,4.43,14.33,5.63,8.42,2.05,13.75,7.19,17.24,14.75-.66.78-1.32,1.56-1.98,2.35-2.43-2.19-3.39-5.8-6.95-7.18-4.04,5.04-10,9.64-2.66,16.52ZM121,279.08c7.31,7.58,15.77,13.77,24.05,20.21,3.64,2.84,6.44,2.56,9.87.14,18.1-12.82,32.52-29.1,46.03-48.27-20.86-2.74-39.95-8.46-59.38-12.66-17.35-7.18-35.09-13.37-52.09-21.42-13.14-6.23-16.74-4.45-22.1,9.53-.55,1.44-.97,2.93-1.45,4.4-5.21,16.08,6.27,26.59,19.19,25.9,8.5-.45,15.42,3.59,21.54,9.12,4.8,4.34,9.56,8.7,14.34,13.06ZM316.97,241.09c-11-6.13-15.8-7.12-17.6-3.84-2.87,5.24-.21,14.23,6.25,15.42,7.7,1.42,7.11-7.85,11.34-11.58Z"/>
      <path class="ralph-cls-76" d="M68.86,197.26c-.66.71-1.32,1.42-1.98,2.13-7.36-7.09-11.22-16.01-13.17-25.82-.78-3.94-2.43-6.15-6.45-7.75-11.21-4.46-16.57-14.18-16.14-27.43.47-14.5,4.6-20.38,18.41-24.83,2.75-.88,3.39-2.39,3.69-4.43,1.98-13.7,6.02-26.83,11.35-39.61-3.84-1.52-3.21,2.51-5.09,3.04-.68-.79-1.36-1.58-2.04-2.37,1.19-6.15,8.3-9.39,7.95-16.3,2.99-.66,2.99-4.21,5.31-5.52-.72,4.23,2.13,5.93,5.24,7.45-7.02,13.72-13.07,27.73-16.9,42.82-2.44,9.63-3.23,17.15,7.84,21.29,2.19.82,3.89,2.93,5.82,4.45.32,1.73,2.69,5.08-1.8,3.61-2.73-.89-4.75-3.82-7.24-5.63-13.76-9.99-26.38-4.43-28.16,12.46-.52,4.9-.59,9.81,1.22,14.62,5.05,13.43,16.71,17.42,28.89,9.95,3.41-2.09,5.91-5.9,11.68-7.1-3.94,7.87-9.56,11.37-15.95,13.38-4.44,1.4-4.64,3.59-3.85,7.53,1.82,9.02,6.62,16.49,11.37,24.04Z"/>
      <path class="ralph-cls-48" d="M282.38,26.1c1.24-1.81,2.48-3.62,3.72-5.44,27.71,12.54,48.56,33.54,68.38,55.79.9,1.01,2.82,2.33,1.23,3.78-2.75,2.51-3.64-.89-4.78-2.19-12.85-14.75-26.88-28.23-42.66-39.82-2.64-1.94-5.43-3.68-10.39-7.02,6.15,11.67,16.18,16.3,21.63,24.89-2.82,3.5-.4,5.89,1.77,8.33-.54.77-1.07,1.55-1.61,2.32-.56,1.32-1.11,2.64-1.67,3.96-7.21-18.61-19.31-33.29-35.62-44.6Z"/>
      <path class="ralph-cls-14" d="M341.93,193.72c-4.84,6.75-12.35,8.72-19.7,10.83-3.68,1.06-6.34,2.1-7.4,6.66-2.08,8.9-8.66,13.75-17.27,16.02-1.21-1.67-2.7-3.21-3.58-5.04-6.19-12.95-10.79-15.02-24.97-11.01-3.46.71-3.45,5.97-8.34,5.9,2.05-7.85,7.02-11.23,14.45-10.96,5.18.19,6.76-1.75,5.18-6.56-2.17-10.15-10.59-8.45-17.65-9.33-.81-.64-1.62-1.28-2.43-1.92,16.16-2.43,21.12.48,24.27,15.15.7,3.28,2.84,4.69,4.86,4.34,16.22-2.87,32.84-4.58,47.04-14.21,1.17-.65,2.34-1.3,3.52-1.94.67.69,1.34,1.39,2.01,2.08ZM297.56,219.78c5.58,1.73,8.91.46,11.78-4.95.93-1.74,2.13-4.54,1.39-5.69-1.21-1.89-3.83-.61-5.83.06q-12.04,2.1-7.35,10.58Z"/>
      <path class="ralph-cls-8" d="M150.6,3.96c.68,1.76,2.75,3.42.4,5.4-6.31-3.21-10.19,1.08-13.88,4.88-20.74,21.34-34.3,46.61-40.37,75.78-2.51,12.07-4.51,24.25-6.72,36.28-2.26-.06-2.69-1.36-2.5-2.51,2.83-16.67,3.9-33.64,9.37-49.84,6.69-19.83,16.46-37.88,29.59-54.16.71-.88,6.82-3.5-.06-4.92-.81-.71-1.62-1.41-2.43-2.12,8.35-4.5,17.13-7.69,26.6-8.79Z"/>
      <path class="ralph-cls-77" d="M341.93,193.72c-.67-.69-1.34-1.39-2.01-2.08,5.85-8.47,4.71-16.75-.66-24.93-3.55-5.41-6.79-11.05-10.69-16.19-4.16-5.47-6.13-11.39-5.26-18.12,1.71-13.16,1.94-26.27-.42-39.36,0-1.65,0-3.3,0-4.96.68-1.44,1.37-2.88,2.05-4.32,1.41,4.27,2.33,9.35,1.98,13.1-1.11,12,1.63,20.28,11.8,28.15,6.81,5.26,5.65,16.82,1.21,23.82-3.81,6.03-2.09,8.93.89,13.2,6.11,8.76,9.72,17.98,4.24,28.45-.67,1.27-2.07,2.16-3.14,3.22ZM334.71,149.06c6.08-7.92,5.78-19.21-.68-25.44-2.35-2.27-2.68-2.29-6.13-.46-.29,5.11-.93,10.22-.78,15.31.16,5.41,2.59,8.28,7.59,10.59Z"/>
      <path class="ralph-cls-22" d="M123.99,12.75c.81.71,1.62,1.41,2.43,2.12-3.65,3.14-7.31,6.28-10.96,9.42-1.55-.67-1.35-5.91-4.66-1.85-1.53,1.87-2.21,4.47-4.75,5.46-13.74,5.3-21.14,17.45-30.11,27.92-3.11-1.52-5.96-3.22-5.24-7.45,2.74-2.53,7.81-4.15,3.68-9.39,14.97-11.72,32.76-18.07,49.6-26.23Z"/>
      <path class="ralph-cls-21" d="M74.39,38.98c4.13,5.24-.94,6.86-3.68,9.39-2.32,1.31-2.32,4.86-5.31,5.52-4.19-.56-5.89,2.91-8.11,5.27-9.12,9.71-16.57,20.67-23.39,32.08-1.35,2.25-1.65,5.46-4.99,6.17-.58-12.02,26.2-46.39,45.47-58.42Z"/>
      <path class="ralph-cls-7" d="M406.98,517.63c-.88-3.13,1.03-6.77-1.72-9.57-.63-2.33.66-5.94-3.79-5.75-6-4.68-12.83-8.67-14.03-17.79,8.87,9.62,17.13,20.28,32.37,13.82.51.15,1.03.22,1.55.2.73.68,1.46,1.36,2.19,2.04-.42.43-.8,1.2-1.26,1.24-9.64.88-15.65,5.23-15.32,15.8Z"/>
      <path class="ralph-cls-19" d="M321.28,64.42c-2.17-2.44-4.59-4.82-1.77-8.33,10.11,8.02,15.21,19.14,19,31.13-7.58-6.24-9.16-17.01-17.23-22.81Z"/>
      <path class="ralph-cls-78" d="M429.43,692.14c-.78.78-1.55,1.55-2.33,2.33-8.06-8.22-18.52-12.78-28.15-18.61.77-.71,1.55-1.43,2.32-2.14,10.61,4.26,20.92,8.98,28.16,18.42Z"/>
      <path class="ralph-cls-11" d="M57.45,70.18c.68.79,1.36,1.58,2.04,2.37-4.83,10.07-9.67,20.15-14.5,30.22-.96-.45-1.92-.9-2.88-1.35,4.15-10.82,8.22-21.68,15.34-31.24Z"/>
      <path class="ralph-cls-16" d="M269.01,211.19c14.18-4.01,18.79-1.94,24.97,11.01.87,1.83,2.37,3.37,3.58,5.04.1.42.09.84-.02,1.25-.65.17-1.31.34-1.96.51-5.81-10.49-14.28-17.01-26.56-17.81Z"/>
      <path class="ralph-cls-35" d="M423.55,500.58c-.73-.68-1.46-1.36-2.19-2.04,6.9-6.18,3.23-11.35-1.56-16.42.79-.73,1.59-1.47,2.38-2.2,9.36,8.41,9.66,12.97,1.37,20.66Z"/>
      <path class="ralph-cls-57" d="M260.26,727.87c-.73-1.56-2.06-2.04-3.66-2.01-.14-.75-.28-1.5-.41-2.25,1.69-6.98-4.54-9.86-7.44-14.46l2.18-2.12c6.01,5.64,12.65,11,9.33,20.83Z"/>
      <path class="ralph-cls-74" d="M422.18,479.93c-.79.73-1.59,1.47-2.38,2.2-6.47-4.65-12.43-9.8-16.37-16.91.63-.82,1.26-1.64,1.89-2.47,4.94,6.4,10.81,11.87,16.86,17.18Z"/>
      <path class="ralph-cls-84" d="M324.94,83.77c-.68,1.44-1.37,2.88-2.05,4.32-1.63-5.8-3.26-11.6-4.89-17.39.56-1.32,1.11-2.64,1.67-3.96,3.07,5.27,4.69,10.99,5.27,17.04Z"/>
      <path class="ralph-cls-72" d="M327.14,251.21c.66-.78,1.32-1.56,1.98-2.35,3.9,3.91,6.68,8.58,9.12,13.49-.68.68-1.36,1.36-2.04,2.04-3.02-4.39-6.04-8.79-9.05-13.18Z"/>
      <path class="ralph-cls-5" d="M208.22,241.96c-2.6,2.8-4.35,6.3-9.56,5.32-25.24-4.78-50.41-9.72-74.1-20.21-.3-.54-.52-1.14-.9-1.61-19.67-24.05-19.69-50.57.12-74.85,1.93-2.36,2.95-4.7,2.48-7.6-3.97-24.56-.43-48.57,5.84-72.23,4.68-17.68,11.98-34.28,23.99-48.43-2.45,12.01-8.68,22.86-10.35,35.15-1.03,7.6-1.38,8.9,1.65,16.65,2.07-21.88,7.91-40.38,17.96-57.44,2.69-3.57,6.29-6.53,7.44-11.14,3.9-3.08,8.48-1.06,12.7-1.71-5.29,13.77-9.86,27.69-12.03,42.39-1.27,8.55-.87,15.3,3.77,20.9-2.47-22.54,3.71-42.31,11.95-61.64,6.58-4.42,9.82-1.57,11.24,5.2.8,3.85,1.57,7.7,2.36,11.56v40.4c5.64-15.31,5.14-30.81,1.86-46.41-.49-3.84-.98-7.68-1.48-11.62,3.4-1.71,4.4,2.23,6.76,2.84,13.19,16.29,17.47,35.85,19.61,56.83,4.23-3.5,3.04-7.19,2.6-10.23-2.25-15.7-5.82-30.97-15.61-44.06-.77-1.03-6.34-4.55.89-4.71,2.98,2.01,5.96,4.02,8.93,6.04,6.04,6.06,9.45,3.14,2.14-1.73,1.21-3.84,3.94-1.85,6.04-1.42,10.92,2.22,20.24,7.83,29.16,14.23,3.77,3.68,7.55,7.36,11.32,11.05,6.17,8.77,12.34,17.55,18.5,26.32.8-.55,1.61-1.11,2.41-1.66-5.34-9.48-10.87-18.84-19.01-26.54-.75-1.32-1.5-2.64-2.25-3.97,21,9.43,30.49,27.36,35.64,48.49,0,49.29-31.58,54.56-31.58,55.53-10.76-2.81-21.86-1.32-32.75-2.53-2.23-.25-5.76-1.77-6.16,1.6-.3,2.5,3,3.41,5.58,3.59,5.07,3.23,10.68,1.38,16.01,1.52,15.1.39,19.77,4.02,23.34,19.05.39,4.29-2.28,6.13-5.82,7.26-5.06-.08-10.13-.16-15.2-.24-.01-8.59-3.44-15.49-11.71-18.17-6.52-2.11-13.15-.93-17.86,5.13-1.21,2.23-2.41,4.45-3.62,6.68-7.17,5.72-7.28,14.45-9.46,22.3-2.76,9.95-.51,20.34-2.74,30.33-19.51-4.75-39.7-6.76-58.75-13.82q4.25-10.39,2.33-16.33c-2.5,12.4-9.86,20.09-23.7,22.13,4.75,3.47,7.32,2.92,9.32,1.5,6.29-4.46,12.44-2.75,19.16-.96,15.47,4.11,31.03,8.03,47.07,9.42,1.87.84,5.12.44,5.3,2.84.53,6.97.19,13.9-1.12,20.91-1.04,5.6-5.41,3.3-7.98,5.01-.87.58-1.17,2.02-1.73,3.07ZM233.93,137.24c-7.65-1.63-13.3,1.57-17.19,7.52-1.65,2.52-4.8,6.03.38,9.83,1.38-10.34,9.4-13.28,16.81-17.36Z"/>
      <path class="ralph-cls-68" d="M156.09,22.35c-12.01,14.15-19.31,30.75-23.99,48.43-6.27,23.65-9.82,47.67-5.84,72.23.47,2.91-.55,5.24-2.48,7.6-19.81,24.28-19.79,50.8-.12,74.85.38.47.6,1.07.9,1.61-20.11-7.05-40.66-13.27-55.7-29.81-4.76-7.55-9.55-15.03-11.37-24.04-.79-3.94-.59-6.13,3.85-7.53,6.39-2.01,12.01-5.51,15.95-13.38-5.77,1.2-8.27,5.01-11.68,7.1-12.18,7.46-23.84,3.48-28.89-9.95-1.81-4.82-1.74-9.72-1.22-14.62,1.79-16.89,14.4-22.45,28.16-12.46,2.49,1.81,4.51,4.73,7.24,5.63,4.49,1.47,2.12-1.88,1.8-3.61.6-1.04,1.19-2.09,1.79-3.13-.63-19.64,2.08-38.54,10.8-56.49,7.53-15.48,18.61-28.11,30.17-40.47,3.65-3.14,7.31-6.28,10.96-9.42,6.88,1.42.77,4.04.06,4.92-13.13,16.28-22.9,34.33-29.59,54.16-5.47,16.2-6.54,33.17-9.37,49.84-.2,1.15.23,2.45,2.5,2.51,2.21-12.03,4.21-24.21,6.72-36.28,6.07-29.17,19.63-54.44,40.37-75.78,3.69-3.8,7.57-8.1,13.88-4.88,0,0-.24.24-.24.24-25.68,23.74-34.6,54.1-34.26,87.97,3.21-15.29,5.1-30.97,10.63-45.83,5.72-15.36,14.86-28.4,25.79-40.36,3.43-1.35,4.58-6.04,8.89-6.11,2.09.91,4.73-1.12,6.95,1.45-1.79,2.1-3.51,4.12-5.23,6.15-4.07,1.9-4.99,6.29-7.42,9.48Z"/>
      <path class="ralph-cls-62" d="M339.93,191.64c-1.17.64-2.34,1.29-3.52,1.94,1.56-13.9-1.83-26.6-10.75-37.23-10.3-12.29-7.25-26.83-8.18-40.77-1.03-7.85-2.63-12.55-3.25-20.39-2.61-6.36-2.99-12.5-3.93-19.07-5.16-21.12-14.65-39.05-35.64-48.48-1.95-1.61-4.47-2.68-5.28-5.41,5.16-1.5,8.76,2.28,13.01,3.86,16.31,11.31,28.41,26,35.62,44.6,1.63,5.8,3.26,11.6,4.88,17.4.01,1.65.01,3.3.01,4.95,2.36,13.1,2.13,26.21.42,39.37-.88,6.72,1.1,12.64,5.26,18.11,3.9,5.14,7.13,10.78,10.68,16.19,5.38,8.18,6.52,16.45.67,24.93Z"/>
      <path class="ralph-cls-8" d="M152.9,11.38c-10.93,11.95-20.07,24.99-25.79,40.36-5.53,14.86-7.42,30.54-10.63,45.83-.34-33.87,8.58-64.22,34.26-87.97.72.59,1.44,1.19,2.16,1.78Z"/>
      <path class="ralph-cls-9" d="M217.41,5.33c-7.23.15-1.66,3.67-.89,4.71,9.79,13.09,13.36,28.36,15.61,44.06.44,3.04,1.62,6.73-2.6,10.23-2.14-20.98-6.42-40.55-19.61-56.83,2.3-1.42,3.6-6.31,7.49-2.16Z"/>
      <path class="ralph-cls-8" d="M189.18,5.52c-8.24,19.33-14.42,39.1-11.95,61.64-4.63-5.6-5.03-12.35-3.77-20.9,2.18-14.7,6.74-28.63,12.03-42.39,1.23.55,2.46,1.11,3.69,1.66Z"/>
      <path class="ralph-cls-82" d="M204.63,16.27c3.28,15.6,3.78,31.1-1.86,46.41V22.27c2.13-1.53,1.35-3.97,1.86-6.01Z"/>
      <path class="ralph-cls-83" d="M228.48,9.63c7.31,4.87,32.62,38.44,31.88,46.66-5.98-6.21-11.12-22.01-34.02-44.93.71-.58,1.43-1.15,2.14-1.73Z"/>
      <path class="ralph-cls-8" d="M163.51,12.87c1.72-2.02,3.45-4.05,5.23-6.15-2.22-2.56-4.86-.54-6.95-1.45,3.75-3,7.38-1.44,11,.29-1.15,4.61-4.75,7.57-7.44,11.14-1.5-.85-1.72-2.32-1.84-3.84Z"/>
      <path class="ralph-cls-73" d="M269.37,22.23c.81,2.74,3.33,3.8,5.28,5.42.74,1.32,1.49,2.64,2.24,3.96-.63.63-1.27,1.25-1.9,1.88-3.77-3.68-7.55-7.36-11.32-11.05,1.87-.89,3.6-5.46,5.7-.21Z"/>
      <path class="ralph-cls-60" d="M100.54,441.2c29.95,5.56,59.98,9.85,90.49,11.57,20.06,1.13,40.06,1.02,60.09,1.16,3.97.03,7.94-.79,11.92-1.1,2.45-.2,5.44-1.15,7.28-.13,22.69,12.65,44.95.3,67.36-.88.58-.03,1.49-.26,1.67-.66,6.45-14.52,22.06-7.82,32.1-13.96-1.66,24.71-8.53,47.93-19.66,70-1.32,2.61-5.06,5.13-2.17,8.95-1.31,2.21-2.62,4.41-3.93,6.62-5.6,2.47-5.53,7.35-5.77,12.5-1.84,39.36,3.28,78.48,3.93,117.76-24.44,5.98-49.18,8.98-74.37,7.55,2.59-27.17,4.69-54.37,3.79-81.71-.04-1.18.39-2.42.77-3.58,2.63-7.95-1.68-8.69-7.57-6.98-7.04,2.04-13.91,4.71-21.34,5.06-21.46,3.64-42.8,8.75-64.78,7.3-6.36-.42-4.9,5.06-7.23,7.64-.48-2.64-.07-5.97-4.35-5.66-2.3.16-3.15,1.68-3.24,3.74-.4,9.5-3.16,18.77-.98,28.56,2.33,10.5,2.37,21.53,5,31.92,1.98,7.86-.78,15.66,1.57,23.25-25.65,6.09-51.57,9.85-78.02,9.03-4.74-6.93-4.79-14.51-2.82-22.25,4.93-19.4,14.37-37.54,16.53-57.66,1.13-10.55,6.8-22,1.24-31.7-23.56-41.09-18.72-83.41-7.51-126.31Z"/>
      <path class="ralph-cls-6" d="M115.37,377.58c40.88,17.29,75.44,3.97,106.86-22.73,17.04-14.49,31.55-31.49,45.06-49.31,2.78-3.66,5.92-7.43,2.31-12.32,1.15-.41,1.81-.89,2.17-.73,12.05,5.39,11.99,5.36,19.51-5.76,4.32-6.38,8.87-12.6,13.32-18.9,37.36,39,57.17,85.55,59.67,139.52-8.38,2.58-15.74,7.95-25.92,2.92-5.21-2.57-13.25.55-19.99,1.2-12.29,1.19-25.05.71-36.76,3.99-41.72,11.68-83.38,3.14-125.01.99-15.61-.81-31.06-4.76-46.59-7.29-.78-10.97,2.02-21.33,5.38-31.59Z"/>
      <path class="ralph-cls-67" d="M100.54,441.2c-11.21,42.91-16.05,85.22,7.51,126.31,5.56,9.7-.1,21.15-1.24,31.7-2.16,20.12-11.61,38.26-16.53,57.66-1.97,7.74-1.92,15.32,2.82,22.25-15.24.16-29.94-3.14-44.33-7.6-11.18-3.46-13.88-9.48-10.97-20.97,8.59-33.95,8.57-68.32,5.32-102.9-.54-5.76-3.58-9.75-6.98-13.67-17.5-20.18-27.5-43.48-30.64-70.07-1.42-12.03-2.38-23.79-.26-35.84,1.27-7.21,4.74-8.4,11-6.86,26.86,6.6,53.75,13.05,80.64,19.53,1.19.29,2.45.31,3.68.45Z"/>
      <path class="ralph-cls-75" d="M256.18,723.61c.14.75.27,1.5.41,2.25.34,4.4-2.31,6.48-5.82,8.48-12.5,7.12-25.97,7.27-39.59,5.72-29.38-3.35-57.74-11.97-86.79-17.09-11.06-1.95-22.18-.53-33.27-.86-6.42-.55-8.22-4.03-7.62-10.29.64-6.67.52-13.34,1.73-20.05,1.01-5.61,3.54-6.82,8.54-7.13,7.16-.44,14.61,2.14,21.49-1.73,15.04-.62,29.81-3.45,44.68-5.46,4.06,3.68,9.49,3.82,14.33,5.4,29.3,9.56,60.01,16.23,81.9,40.74Z"/>
      <path class="ralph-cls-54" d="M115.37,377.58c-3.36,10.26-6.16,20.62-5.38,31.59-28.08-5.22-55.96-11.33-83.67-18.27-6.08-1.52-11.74-3.57-16.56-7.64-1.72-24.07,7.69-45.47,16.59-66.8,8.01-19.18,18.32-37.2,31.9-53.12,1.8-2.11,3.76-4.11,5.76-6.04,1.62-1.56,3.54-3,5.49-.56,2.26,2.83-.63,3.75-2.22,4.86-25.06,17.52-18.87,55.2-4.78,73.47,14.25,18.48,32.07,32.32,52.87,42.52Z"/>
      <path class="ralph-cls-75" d="M423.74,707.61c-21.62,9.96-44.41,7.36-67.03,6.09-25.17-1.42-49.46-8.4-74.28-12.09-2.1-2.58-5.11-2.07-7.7-1.73-7.43.96-9.49-2.2-9.26-9.37.27-8.36,2.16-16.3,3.91-24.34,24.52-.61,48.92-2.27,72.73-8.77,5.96,6.44,14.73,5.81,22.07,8.79,14.59,5.67,28.77,12.25,42.56,19.65,8.85,4.75,16.23,10.67,16.99,21.77Z"/>
      <path class="ralph-cls-75" d="M115.36,414.81c49.4,9.06,99.29,10.59,149.33,9.46,6.28-.14,8.76,1.45,8.52,8.23-.67,19.3,1.9,14.39-15.58,16.37-24.73,2.81-49.34,1.08-73.9-.66-22.34-1.58-44.79-3.31-66.65-8.91-2.33-3.4-10.72-.68-8.67-8.19,1.01-3.68,1.37-7.27,1.22-10.96-.18-4.23,2.17-5.35,5.74-5.34Z"/>
      <path class="ralph-cls-45" d="M245.13,573.34c7.43-.34,14.3-3.01,21.34-5.06,5.89-1.71,10.19-.96,7.57,6.98-.38,1.16-.81,2.39-.77,3.58.9,27.34-1.2,54.54-3.79,81.71-10.46.64-20.82-.47-31.17-1.82-10.65-1.39-13.26-5.78-12.01-16.86,1.89-16.75,3.36-33.59,3.9-50.43.24-7.69,1.62-12.29,10.09-12.89,2.32-.16,7.08.05,4.83-5.22Z"/>
      <path class="ralph-cls-39" d="M115.36,414.81c-3.57-.01-5.92,1.11-5.74,5.34.16,3.68-.21,7.27-1.22,10.96-2.05,7.5,6.35,4.79,8.67,8.19-11.53-.05-22.4-4-33.5-6.27-21.99-4.5-43.62-10.74-65.49-15.9-11.53-2.72-5.93-10.77-5.83-17.06.13-7.98,4.8-7.05,10.56-5.61,30.12,7.53,60.25,15.06,91.08,19.27.52.07.97.72,1.45,1.09Z"/>
      <path class="ralph-cls-81" d="M276.95,436.75c0-2.17.27-4.38-.04-6.5-1.32-8.99,2.51-11.5,11.35-11.76,14.45-.43,28.89-2.27,43.24-4.26,5.17-.72,6.83.34,6.59,5.36-.2,4.33-.04,8.68-.04,13.02,0,15.59.01,15.7-14.99,17.58-11.62,1.46-23.31,2.32-34.91,3.93-8.8,1.22-12.85-1.57-11.27-10.86.36-2.11.05-4.33.06-6.5Z"/>
      <path class="ralph-cls-39" d="M115.27,682.92c-6.88,3.87-14.32,1.28-21.49,1.73-5,.31-7.53,1.53-8.54,7.13-1.21,6.71-1.09,13.38-1.73,20.05-.6,6.25,1.19,9.73,7.62,10.29-18.67,2.86-36.59.25-53.32-8.47-5.37-2.8-6.82-8.61-5.93-14.54.4-2.71,1.18-5.49,2.39-7.94,2.46-4.96,4.48-10.55,8.23-14.35,4.96-5.04,10.01,1.1,14.95,2.21,19.11,4.26,38.45,4.11,57.82,3.9Z"/>
      <path class="ralph-cls-61" d="M419.81,498.34c-15.24,6.45-23.5-4.2-32.37-13.82,1.2,9.12,8.03,13.11,14.03,17.79-.97,13.7-4.83,26.73-9.25,39.63-5.87,2.51-9.54-.05-11.36-5.48-3.17-9.46-3.38-19.33-3.38-29.21,0-6.06,5.69-3.16,8.47-5.66-3.57-3.56-8.02-2.19-11.86-1.99-6.84.37-7.27-1.99-4.32-7.3,2.08-3.74,4.52-7.73,5.02-11.83,1.59-12.94,9.37-19.71,20.96-23.32,1.18,7.64,4.92,13.64,11.04,18.4,7.4,5.76,10.81,13.97,13.02,22.8Z"/>
      <path class="ralph-cls-4" d="M364.26,407.36c-2.5-53.97-22.31-100.52-59.67-139.52,2.65-4.04,3.17-12.67,11.17-5.22,6.86,8.6,13.72,17.21,20.58,25.81,17.13,26.18,31.13,53.74,37.15,84.8.44,2.25,2.1,2.8,3.67,3.65-.06,1.41-.12,2.82-.18,4.23-2.3,1.48-1.73,3.55-1.27,5.7,2.74,12.8,1.35,15.27-11.45,20.55Z"/>
      <path class="ralph-cls-37" d="M269.38,666.16c-1.74,8.04-3.64,15.98-3.91,24.34-.23,7.17,1.82,10.33,9.26,9.37,2.59-.33,5.59-.85,7.7,1.73-11.94-.4-23.87.81-35.81-1.64-10.44-2.14-18.59-9.04-28.46-12.26-3.03-.99-2.94-4.45-2.11-7.28.96-3.24,2.04-6.46,3.26-9.61,2.77-7.15,5.65-12.37,15.57-8.53,10.86,4.2,23.06,1.74,34.49,3.88Z"/>
      <path class="ralph-cls-56" d="M376.98,381.11c.06-1.41.12-2.82.18-4.23-.66-5.29-1.32-10.58-1.99-15.87,7.96,13.22,9.68,28.63,14.9,42.83,4.91,13.37,5.79,28.03,12.77,40.77-4.69,8.4-13.44,10.66-21.74,15.62,3.41-23.4-2.77-45.26-.41-67.26.43-4.05,0-8.69-3.7-11.86Z"/>
      <path class="ralph-cls-34" d="M343.85,653.01c-.65-39.27-5.77-78.39-3.93-117.76.24-5.15.17-10.03,5.77-12.5-.11,18.24-.17,36.47-.34,54.71-.2,21.39,1.64,42.58,6.52,63.41,1.75,7.47-.51,11.3-8.02,12.14Z"/>
      <path class="ralph-cls-63" d="M354.57,518.78c2.59-4.18,5.57-8.18,7.64-12.6,1.97-4.21,5.04-3.51,8.4-3.25,4.43.35,3.22,3.63,3.39,6.21.43,6.47.61,12.97,1.28,19.41,1.37,13.15-5.75,18.87-18.47,14.61-2.56-7.96-1.95-16.21-2.24-24.38Z"/>
      <path class="ralph-cls-79" d="M171.11,670.1c-2.35-7.59.41-15.39-1.57-23.25-2.63-10.4-2.67-21.43-5-31.92-2.17-9.79.58-19.06.98-28.56.09-2.06.94-3.58,3.24-3.74,4.28-.31,3.87,3.03,4.35,5.66-1.61,21.93.56,43.57,4.55,65.12,1.25,6.75,2.32,13.78-6.55,16.69Z"/>
      <path class="ralph-cls-34" d="M349.63,516.14c-2.9-3.82.85-6.34,2.17-8.95,11.14-22.07,18-45.28,19.66-70,3.08-1.58,7.83-6.68,7.46,1.87-1.23,28.85-10.11,54.98-29.29,77.08Z"/>
      <path class="ralph-cls-23" d="M402.83,444.61c-6.98-12.74-7.86-27.41-12.77-40.77-5.21-14.2-6.94-29.61-14.89-42.83-3.06-9.31-6.12-18.62-9.18-27.94,4.44-.19,4.3,3.85,5.48,6.33,14.7,30.96,24.84,63.48,32.75,96.76.75,3.16,1.27,5.99-1.39,8.45Z"/>
      <path class="ralph-cls-41" d="M256.18,723.61c-21.89-24.51-52.6-31.18-81.9-40.74-4.84-1.58-10.27-1.72-14.33-5.4,4.01-1.77,8.23-2.98,12.5-1.54,26.38,8.88,53.24,16.68,76.3,33.23,2.9,4.61,9.13,7.49,7.44,14.46Z"/>
      <path class="ralph-cls-30" d="M368.14,433.31c-3.83,1.06-7.63,2.24-11.49,3.17-15.16,3.66-15.8,2.99-14.82-12.51.28-4.41,1.76-6.44,6.28-7.34,6.56-1.31,12.93-3.6,19.38-5.47.22,7.39.43,14.77.65,22.16Z"/>
      <path class="ralph-cls-15" d="M327.14,251.21c3.02,4.39,6.04,8.79,9.05,13.18,3.64,6.35,7.27,12.7,11.33,19.78-16.39-.93-20.15-16.11-30-23.62-7.34-6.88-1.37-11.48,2.66-16.52,3.56,1.38,4.53,4.98,6.95,7.18Z"/>
      <path class="ralph-cls-70" d="M365.99,333.08c3.06,9.31,6.12,18.62,9.18,27.94.66,5.29,1.32,10.58,1.99,15.87-1.58-.85-3.24-1.4-3.68-3.65-6.02-31.06-20.02-58.62-37.15-84.8,1.59-.29,2.61-4.2,4.18-1.81,9.73,14.78,21.14,28.69,25.48,46.46Z"/>
      <path class="ralph-cls-10" d="M423.74,707.61c-.76-11.1-8.15-17.02-16.99-21.77-13.79-7.41-27.97-13.98-42.56-19.65.79-1.57,2.3-1.7,3.78-1.88,10.33,3.85,20.66,7.7,30.98,11.55,9.63,5.83,20.1,10.39,28.15,18.61,3.13,5.47,3.15,10.15-3.36,13.14Z"/>
      <path class="ralph-cls-43" d="M419.81,498.34c-2.21-8.83-5.62-17.04-13.02-22.8-6.12-4.76-9.86-10.76-11.04-18.4,1.35-1.11,2.56-4.45,4.25-.26,1.12,2.79,2.29,5.56,3.44,8.34,3.94,7.11,9.9,12.26,16.37,16.91,4.79,5.06,8.46,10.24,1.56,16.42-.53.02-1.05-.05-1.55-.2Z"/>
      <path class="ralph-cls-12" d="M368.14,433.31c-.22-7.39-.43-14.77-.65-22.16,2.53-2.08,4.98-4.32,8.46-4.78,3.39,18.08,1.72,23.75-7.81,26.94Z"/>
      <path class="ralph-cls-43" d="M392.22,541.93c4.42-12.9,8.28-25.92,9.25-39.63,4.45-.19,3.16,3.42,3.79,5.75-1.4,7.86-2.42,15.81-4.33,23.54-1.12,4.54-2.17,10.01-8.71,10.34Z"/>
      <path class="ralph-cls-46" d="M354.57,518.78c.3,8.17-.32,16.42,2.24,24.38-9.66-6.16-10.38-14.07-2.24-24.38Z"/>
      <path class="ralph-cls-42" d="M367.97,664.3c-1.48.18-2.99.31-3.78,1.88-7.34-2.97-16.11-2.35-22.07-8.79,9.3-.27,17.57,3.35,25.85,6.91Z"/>
      <path class="ralph-cls-6" d="M65.07,269.72c8.64-11.98,26.03-11.59,34.82-4.04,14.93,12.81,29.2,26.41,44.94,38.31-3.42,4.07-9.4,2.84-12.2,8.04,6.68,1.13,10.99-3.37,16.2-4.52,7.13,2.29,11.5-2.87,16.56-6.16,19.15-11.3,35.08-25.97,46.68-45.09,2.86-4.71,6.07-5.43,10.59-2.27,10.38,7.26,20.51,14.76,28.16,25.08-3.92,4.68-7.75,9.45-11.78,14.04-11.07,12.6-21.28,26.1-36.26,34.58-8.29-2.09-11.51,3.87-14.95,9.47-5.65,5.06-12.69,7.53-19.55,10.15-30.1,11.48-68.2.18-87.94-25.56-11.84-15.44-16.33-32.87-15.3-52.02Z"/>
      <path class="ralph-cls-54" d="M202.81,327.68c14.98-8.48,25.19-21.99,36.26-34.58,4.03-4.59,7.86-9.35,11.78-14.04,3.54,1.89,4.27,5.82,6.37,8.76,3.12,4.36,2.84,10.82,8.44,13.6-16.32,20.99-33.44,41.23-54.66,57.51-40.11,30.78-82.87,29.73-121.87-2.45-10.1-8.33-19.14-17.56-26.15-28.52-9.34-14.62-11.01-30.47-5.59-47.03,1.48-4.52,3.47-8.6,7.68-11.21-1.03,19.15,3.46,36.58,15.3,52.02,19.74,25.75,57.84,37.05,87.94,25.56,6.86-2.62,13.9-5.1,19.55-10.15,5.83-1.81,10.74-5.08,14.95-9.46Z"/>
      <path class="ralph-cls-5" d="M230.53,155.56c1.21-2.23,2.41-4.45,3.62-6.68,1.81-.04,3.81.41,5.39-.22,7.17-2.85,13.48-2.06,17.87,4.6,4.29,6.51,1.25,12.27-3,17.59-3.04,1.62-3.17,5.23-5.19,7.55-5.69,5.27-7.11,11.56-4.49,18.81-1.5,3.35-5.87,5.77-3.72,11.95,4.47-5.79,6.93-11.68,12.99-13.89,8.91.56,18.36-2.2,26.32,4.27,1.58,4.81,0,6.75-5.18,6.56-7.43-.27-12.4,3.11-14.45,10.96,4.89.08,4.88-5.19,8.34-5.9,12.28.81,20.75,7.32,26.56,17.81-.48,5.74.86,11.94-4.19,16.51-4.71-2.38-.78-6.94-2.67-10.48-2.6-4.89-4.6-9.81-10.81-9.77-6.64.04-8.78,4.84-10.82,10.63-2.62,7.43,1.07,13.28,2.83,19.64,2.57,9.28-1.41,15.85-11.22,17.88-.78-.57-1.56-1.15-2.34-1.72-6.05-8.28-13.32-15.22-22.21-20.4-3.83-2.56-7.67-5.12-11.5-7.69-1.78-1.19-3.63-2.06-2.5-5.03,4.76-12.56,2.79-25.71,2.84-38.63.06-13.13,1.44-25.88,6.64-38.08.8-1.88.62-4.19.89-6.29Z"/>
      <path class="ralph-cls-36" d="M141.56,238.49c19.44,4.2,38.52,9.93,59.38,12.66-13.51,19.17-27.93,35.45-46.03,48.27-3.43,2.43-6.22,2.7-9.87-.14-8.27-6.44-16.73-12.63-24.05-20.21,5.07-14.44,14.24-26.79,20.56-40.59Z"/>
      <path class="ralph-cls-54" d="M141.56,238.49c-6.32,13.8-15.49,26.15-20.56,40.59-4.78-4.35-9.55-8.72-14.34-13.06-6.13-5.54-13.04-9.58-21.54-9.12-12.92.69-24.4-9.82-19.19-25.9.48-1.47.9-2.96,1.45-4.4,5.36-13.98,8.96-15.76,22.1-9.53,17,8.06,34.74,14.24,52.09,21.42Z"/>
      <path class="ralph-cls-51" d="M265.66,301.42c-5.6-2.78-5.32-9.25-8.44-13.6-2.1-2.93-2.83-6.86-6.37-8.76-7.65-10.32-17.79-17.82-28.16-25.08-4.52-3.17-7.74-2.44-10.59,2.27-11.6,19.12-27.53,33.79-46.68,45.1-1.49.05-2.87-.15-3.65-1.66,19.07-15.97,35.79-33.99,48.42-55.59,2.61-2.57,4.8-.74,7.1.61,4.91,2.89,9.85,5.71,14.78,8.56,7.46,6.84,14.92,13.68,22.38,20.51,4.46,6.25,8.43,12.78,11.26,19.97,1.04,2.64,2.16,5.12-.03,7.67Z"/>
      <path class="ralph-cls-25" d="M282.48,268.78c3.28-2.51,1.96-6.04,2.29-9.31.27-2.66-4.19-5.25-.72-7.28,3.03-1.78,6.94-2.87,10.45-2.84,6.6.05,10.72,9.71,6.93,15.43-4.76,7.2-10.09,14.07-14.18,21.63-3.6,6.64-7.38,7.02-12.94,2.94-3.14-2.31-7.46-2.95-9.97-6.99,3.78-3.31,10.79-.66,12.54-6.94,1.87-2.21,3.74-4.42,5.61-6.63Z"/>
      <path class="ralph-cls-17" d="M282.48,268.78c-1.87,2.21-3.74,4.42-5.61,6.63-5.95-1.62-13,6.83-18.16-2.01,9.81-2.03,13.78-8.6,11.22-17.88-1.76-6.37-5.45-12.21-2.83-19.64,2.04-5.78,4.18-10.58,10.82-10.63,6.21-.04,8.21,4.88,10.81,9.77,1.88,3.54-2.04,8.11,2.67,10.48-1.33,2.19-3.62,2.22-5.72,2.28-2.92.08-6.47,1.52-8.23-2.12-1.47-3.05,1.04-5.13,2.66-7.33,1.17-1.59,3.43-2.6,2.76-6.33-6.18,3.55-11.95,7.73-8.81,14.7,3.26,7.24,8.53,13.55,8.43,22.07Z"/>
      <path class="ralph-cls-13" d="M232.06,253.26c-4.93-2.85-9.88-5.67-14.78-8.56-2.3-1.35-4.49-3.18-7.1-.61-.65-.71-1.3-1.42-1.95-2.14.56-1.05.86-2.49,1.73-3.07,2.57-1.7,6.94.59,7.98-5.01,1.31-7.01,1.64-13.94,1.12-20.91-.18-2.41-3.43-2-5.3-2.84,1.1-1.66,2.86-1.74,4.57-1.94,2.23-9.99-.02-20.38,2.74-30.33,2.18-7.85,2.29-16.58,9.46-22.3-.27,2.11-.09,4.41-.89,6.29-5.19,12.2-6.58,24.95-6.64,38.08-.05,12.92,1.92,26.08-2.84,38.63-1.13,2.97.72,3.84,2.5,5.03,3.83,2.56,7.66,5.13,11.5,7.69-.7.66-1.4,1.32-2.1,1.97Z"/>
      <path class="ralph-cls-53" d="M316.97,241.09c-4.23,3.74-3.65,13-11.34,11.58-6.46-1.19-9.12-10.18-6.25-15.42,1.8-3.28,6.6-2.29,17.6,3.84Z"/>
      <path class="ralph-cls-32" d="M232.06,253.26c.7-.66,1.4-1.32,2.1-1.97,8.89,5.18,16.16,12.12,22.21,20.4-.64.7-1.29,1.39-1.93,2.09-7.46-6.84-14.92-13.68-22.38-20.51Z"/>
      <path class="ralph-cls-33" d="M161.75,299.69c.78,1.51,2.16,1.71,3.65,1.66-5.06,3.29-9.43,8.44-16.56,6.16,4.3-2.61,8.61-5.21,12.91-7.82Z"/>
      <path class="ralph-cls-17" d="M74.5,121.25c-.6,1.04-1.19,2.09-1.79,3.13-1.93-1.52-3.63-3.63-5.82-4.45-11.07-4.14-10.28-11.66-7.84-21.29,3.82-15.09,9.88-29.1,16.9-42.82,8.96-10.47,16.37-22.62,30.11-27.92-3.01,3.85-6.02,7.7-9.04,11.54-17.1,21.76-26.76,46.2-26.22,74.18.05,2.83-2.08,7.35,3.71,7.63Z"/>
      <path class="ralph-cls-5" d="M278.71,131.66c0-.48,15.48-6.56,23.16-20.3s7.59-35.19,7.59-35.67c5.19,20.57,5.96,23.48,8.01,39.9.93,13.93-2.13,28.47,8.18,40.76,8.92,10.63,12.3,23.33,10.75,37.23-14.2,9.63-30.82,11.34-47.04,14.21-2.02.36-4.16-1.06-4.86-4.34-3.15-14.67-8.11-17.59-24.27-15.15-7.12,3.75-8.69,1-7.5-6.02.58-3.44,2.48-6.14,3.62-9.23,6.15-3.88,13.66-2.34,20.16-5.17,7.05-3.08,13.28-6.55,13.55-15.4.28-9.12-1.61-17.14-11.34-20.81Z"/>
      <path class="ralph-cls-85" d="M256.35,173.04c-1.14,3.1-3.04,5.8-3.62,9.23-1.19,7.02.38,9.77,7.5,6.02.81.64,1.62,1.28,2.43,1.92-2.62,2.16-6.6,1.96-8.67,5.06-6.06,2.21-8.51,8.1-12.99,13.89-2.15-6.18,2.23-8.61,3.72-11.95,7.22-4.9,2.69-12.62,4.49-18.81,2.02-2.32,2.16-5.93,5.19-7.55.65.73,1.29,1.46,1.94,2.19Z"/>
      <path class="ralph-cls-71" d="M253.99,195.28c2.07-3.1,6.05-2.91,8.67-5.06,7.06.88,15.47-.82,17.65,9.33-7.95-6.48-17.4-3.72-26.32-4.27Z"/>
      <path class="ralph-cls-20" d="M304.9,209.2c2-.67,4.62-1.95,5.83-.06.74,1.15-.47,3.95-1.39,5.69-2.87,5.4-6.2,6.68-11.78,4.94,3.74-2.63,6.18-6.16,7.35-10.58Z"/>
      <path class="ralph-cls-49" d="M304.9,209.2c-1.17,4.42-3.61,7.95-7.35,10.58q-4.69-8.48,7.35-10.58Z"/>
      <path class="ralph-cls-28" d="M334.71,149.06c-5-2.3-7.42-5.18-7.59-10.59-.15-5.09.49-10.21.78-15.31,9.63,6.69,5.55,17,6.81,25.9Z"/>
      <path class="ralph-cls-47" d="M334.71,149.06c-1.25-8.9,2.82-19.21-6.81-25.9,3.45-1.84,3.78-1.81,6.13.46,6.46,6.23,6.76,17.52.68,25.44Z"/>
      <path class="ralph-cls-29" d="M74.5,121.25c-5.79-.29-3.65-4.8-3.71-7.63-.54-27.99,9.12-52.42,26.22-74.18,3.02-3.84,6.03-7.69,9.04-11.54,2.54-.99,3.22-3.58,4.75-5.46,3.31-4.06,3.12,1.18,4.66,1.85-11.55,12.37-22.64,24.99-30.17,40.47-8.72,17.95-11.43,36.85-10.8,56.49Z"/>
      <path class="ralph-cls-50" d="M256.35,173.04c-.65-.73-1.29-1.46-1.94-2.19,4.25-5.31,7.3-11.08,3-17.59-4.39-6.66-10.7-7.45-17.87-4.6-1.58.63-3.58.17-5.39.22,4.7-6.06,11.34-7.24,17.86-5.13,8.27,2.68,11.7,9.58,11.71,18.17-2.68,3.6-2.32,5.97,2.66,4.88,4.33-.94,9.13-1.04,12.53-4.65,3.54-1.13,6.21-2.97,5.82-7.26,3.35-10.82-.79-19.86-10.28-20.71-9.64-.87-19.4-2.06-29.07.13-2.58-.18-5.88-1.09-5.58-3.59.4-3.37,3.93-1.84,6.16-1.6,10.89,1.2,21.99-.29,32.75,2.53,9.73,3.68,11.62,11.69,11.34,20.81-.27,8.85-6.5,12.32-13.55,15.4-6.49,2.83-14,1.29-20.16,5.17Z"/>
      <path class="ralph-cls-38" d="M218.33,208.19c-1.71.2-3.48.28-4.57,1.94-16.04-1.39-31.6-5.31-47.07-9.42-6.71-1.79-12.87-3.49-19.16.96-2,1.42-4.57,1.96-9.32-1.5,13.83-2.04,21.2-9.73,23.7-22.13q1.92,5.95-2.33,16.33c19.05,7.06,39.24,9.07,58.75,13.82Z"/>
      <path class="ralph-cls-52" d="M163.51,12.87c.12,1.52.34,2.99,1.84,3.84-10.05,17.06-15.89,35.56-17.96,57.44-3.03-7.75-2.69-9.06-1.65-16.65,1.67-12.29,7.9-23.14,10.35-35.15,2.43-3.19,3.34-7.58,7.42-9.48Z"/>
      <path class="ralph-cls-55" d="M245.38,134.32c9.68-2.19,19.44-1,29.07-.13,9.49.85,13.63,9.89,10.28,20.71-3.56-15.04-8.24-18.67-23.34-19.06-5.34-.14-10.95,1.71-16.01-1.52Z"/>
      <path class="ralph-cls-44" d="M275,33.49c.63-.63,1.27-1.25,1.9-1.88,8.14,7.7,13.67,17.05,19.01,26.54-.8.55-1.61,1.11-2.41,1.66-6.17-8.77-12.34-17.55-18.5-26.32Z"/>
      <path class="ralph-cls-26" d="M233.93,137.24c-7.42,4.07-15.43,7.02-16.81,17.36-5.17-3.8-2.02-7.32-.38-9.83,3.89-5.95,9.54-9.16,17.19-7.52Z"/>
      <path class="ralph-cls-64" d="M278.91,162.15c-3.4,3.61-8.21,3.71-12.53,4.65-4.98,1.08-5.34-1.29-2.66-4.88,5.06.08,10.13.16,15.2.24Z"/>
      <path class="ralph-cls-66" d="M202.81,327.68c-4.21,4.39-9.12,7.66-14.95,9.46,3.44-5.6,6.66-11.55,14.95-9.46Z"/>
      <path class="ralph-cls-40" d="M249.22,178.4c-1.8,6.2,2.73,13.91-4.49,18.81-2.62-7.26-1.2-13.55,4.49-18.81Z"/>
      <g id="eyes">
        <path class="ralph-cls-3" d="M163.81,128.26c-1.15-1.82-2.3-3.65-3.46-5.47-2.57-7.42-5.53-14.65-4.22-22.92.99-6.26,6.51-10.13,7.55-16.2,0,0-.18.18-.18.18,1.17-.25,2.56-.17,3.47-.8,14.71-10.18,29.7-9.53,44.94-1.37,22.43,18.73,12.15,42.5-6.67,50.54-10.84,4.63-21.57,4.35-32.07-.87-3.02-1.5-5.69-3.69-9.35-3.09ZM197.16,108.22c.09-4.48-2.51-6.79-6.11-7.13-3.76-.35-6.63,2.04-6.98,5.9-.37,4.03,2.27,6.35,6.11,6.72,4,.39,6.33-1.79,6.98-5.48Z"/>
        <path class="ralph-cls-3" d="M273.21,123.88c-3.54-1.15-5.3-4.23-7.46-6.88-4.26-10.73-7.95-21.47.11-32.14,1.15-1.52,2.29-2.93,1.44-4.97.28-.46.45-.96.5-1.5,7.58-1.57,14.7-4.56,22.89-4.11,14.37.79,25.17,8.75,26.87,21.51,1.81,13.57-6.13,24.92-19.84,29.48-8.53,2.84-16.37-.57-24.5-1.4ZM291.32,96.53c-4.34.09-6.7,2.67-6.83,6.26-.14,3.81,2.82,6.48,6.44,6.49,3.55.01,6.42-2.33,6.47-6.38.05-4.04-2.35-6.09-6.08-6.37Z"/>
        <path class="ralph-cls-2" d="M273.21,123.88c8.14.83,15.97,4.23,24.5,1.4,13.71-4.56,21.65-15.91,19.84-29.48-1.7-12.76-12.49-20.72-26.87-21.51-8.19-.45-15.31,2.54-22.89,4.11,10.78-10.7,25.53-11.48,42.48-2.26,4.82,4.91,8.47,10.58,11.08,16.94.62,7.84-.6,15.36-3.89,22.52-10.21,12.42-22.98,17.27-38.77,13.17-1.55-1.94-5.81-.83-5.5-4.88Z"/>
        <path class="ralph-cls-18" d="M163.81,128.26c3.66-.6,6.33,1.59,9.35,3.09,10.5,5.22,21.23,5.5,32.07.87,18.82-8.04,29.1-31.81,6.67-50.54.7-.61,1.4-1.22,2.1-1.83,13.52,10.67,17.52,23.42,11.68,37.27-5.9,14.01-23.44,23.91-39.55,21.74-8.42-1.13-16.81-3.02-22.33-10.6Z"/>
        <path class="ralph-cls-59" d="M214.01,79.85c-.7.61-1.4,1.22-2.1,1.83-15.24-8.16-30.23-8.81-44.94,1.37-.91.63-2.3.55-3.47.8-.04-3.38,2.61-4.6,4.9-6.09,13.05-8.54,32.65-7.63,45.61,2.1Z"/>
        <path class="ralph-cls-65" d="M163.68,83.67c-1.03,6.07-6.55,9.94-7.55,16.2-1.31,8.27,1.65,15.51,4.22,22.92-.38.42-1.07,1.23-1.08,1.22-11.13-9.11-8.9-36.38,4.41-40.34Z"/>
        <path class="ralph-cls-69" d="M267.31,79.89c.85,2.05-.29,3.45-1.44,4.97-8.06,10.67-4.37,21.41-.11,32.14-.92.05-2.27.53-2.69.1-9.23-9.49-6.8-30.43,4.24-37.21Z"/>
        <path class="ralph-cls-31" d="M197.16,108.22c-.65,3.69-2.98,5.87-6.98,5.48-3.84-.37-6.48-2.69-6.11-6.72.35-3.86,3.23-6.25,6.98-5.9,3.6.34,6.2,2.66,6.11,7.13Z"/>
        <path class="ralph-cls-27" d="M291.32,96.53c3.73.28,6.13,2.33,6.08,6.37-.05,4.05-2.93,6.39-6.47,6.38-3.61-.01-6.58-2.69-6.44-6.49.13-3.59,2.49-6.17,6.83-6.26Z"/>
      </g>
      <g id="eyes-closed">
        <path class="ralph-cls-5" d="M163.51,83.84s.09-.02.14-.03c.01-.05.02-.1.03-.15l-.17.18Z"/>
        <path class="ralph-cls-5" d="M163.59,83.82s-.05.01-.08.02v-.06s.05.03.08.04Z"/>
        <path class="ralph-cls-5" d="M172.99,135.59c.85.27,1.68.56,2.46.97-.57-.2-1.13-.41-1.68-.63-.26-.11-.52-.22-.78-.34Z"/>
        <path class="ralph-cls-58" d="M225.7,117.12c-2.22,5.26-6.08,9.94-10.89,13.62-.11.04-.21.08-.32.13-1,.47-2,.91-3.11.7-.05-.05-.1-.1-.15-.14.02.03.03.06.03.08-.02-.02-.06-.08-.12-.18.03.03.06.06.09.09-.06-.28,0-.63.02-.91.05-.59.15-1.15.2-1.72,1.73-1.2,3.34-2.55,4.79-4.02.16-.16.31-.32.47-.48.49-.52.97-1.06,1.43-1.62.15-.17.3-.35.44-.54.18-.23.36-.46.53-.69.11-.14.21-.28.31-.43.29-.39.55-.78.82-1.18.11-.18.23-.36.34-.55.56-.89,1.06-1.8,1.5-2.73.12-.24.23-.48.34-.72,0-.02,0-.04.02-.06.13-.29.26-.59.38-.89.24-.61.46-1.23.66-1.85l.15-.51c.07-.23.14-.47.2-.7.01-.03.01-.05.02-.07.08-.32.16-.64.23-.96.08-.36.15-.71.21-1.07.03-.17.06-.34.08-.51.07-.4.12-.8.16-1.2.03-.25.05-.51.07-.76,0-.08,0-.17.02-.25.01-.24.03-.48.03-.72.07-1.9-.08-3.85-.48-5.8-.04-.2-.08-.41-.13-.61-.26-1.13-.6-2.28-1.03-3.42-.09-.25-.19-.5-.29-.75-.1-.25-.21-.5-.32-.75-.11-.26-.23-.51-.35-.76-.76-1.59-1.7-3.17-2.82-4.75-.12-.16-.24-.33-.36-.49-.73-.99-1.54-1.97-2.43-2.95-.22-.24-.45-.49-.68-.73-.78-.82-1.63-1.64-2.53-2.45-.03-.23-.06-.45-.09-.68.02-.86.7-1.68,1.51-1.77,13.01,10.56,16.79,23.12,11.05,36.75Z"/>
        <path class="ralph-cls-65" d="M163.68,83.67c-1.03,6.07-6.55,9.94-7.55,16.2-1.31,8.27,1.65,15.51,4.22,22.92-.38.42-1.07,1.23-1.08,1.22-11.13-9.11-8.9-36.38,4.41-40.34Z"/>
        <path class="ralph-cls-5" d="M317.48,115.58c-.95,1.16-1.93,2.25-2.92,3.28.79.46,1.2,1.51.3,2.24-5.68,4.64-12.56,8.62-19.76,10.28-3.75.86-7.92.4-11.71-.04-3.56-.43-7.04-1.26-10.11-3.18-.79-.5-1.03-1.68-.3-2.36.57-.54-.67-1.62-1.02-1.97-.33-.33-.63-.66-.9-1.01-2.2-1.47-3.63-3.78-5.3-5.83-.92.06-2.27.54-2.69.1-9.24-9.49-6.8-30.43,4.24-37.21.19-.31.31-.64.39-.98-.75-.46-1.17-1.53-.37-2.35,2.62-2.66,6.4-3.89,9.74-5.37,3.71-1.63,7.24-3.03,11.35-3.03,3.78,0,7.67.64,11.35,1.45,3.51.77,6.82,2.04,9.68,4.26.73.57.61,1.35.13,1.88.24.13.48.25.72.38,4.81,4.91,8.47,10.58,11.08,16.94.62,7.84-.6,15.36-3.9,22.52Z"/>
        <path class="ralph-cls-5" d="M175.52,136.59c-.83-.4-1.72-.7-2.64-.89.04-.04.07-.07.11-.11.87.28,1.73.58,2.53,1Z"/>
        <path class="ralph-cls-5" d="M186.44,139.47c-.01.05-.03.11-.04.16-.42-.19-.84-.37-1.26-.56.43.15.86.28,1.3.4Z"/>
        <path class="ralph-cls-5" d="M211.26,131.51s-.06-.08-.12-.18c.03.03.06.06.09.09h0s.03.07.03.09Z"/>
        <path class="ralph-cls-5" d="M173.77,135.93c.55.22,1.11.43,1.68.63-.54-.26-1.1-.47-1.68-.63ZM173.77,135.93c.55.22,1.11.43,1.68.63-.54-.26-1.1-.47-1.68-.63Z"/>
        <path class="ralph-cls-5" d="M224.17,100.48c-.04-.2-.08-.41-.13-.61-.26-1.13-.6-2.28-1.03-3.42-.09-.25-.19-.5-.29-.75-.1-.25-.21-.5-.32-.75-.11-.26-.23-.51-.35-.76-.76-1.59-1.7-3.17-2.82-4.75-.12-.16-.24-.33-.36-.49-.73-.99-1.54-1.97-2.43-2.95-.22-.24-.45-.49-.68-.73-.78-.82-1.63-1.64-2.53-2.45-.03-.23-.06-.45-.09-.68.02-.86.7-1.68,1.51-1.77.33-.04.69.05,1.03.32,1.06.83,2.5,1.03,3.53,0,.87-.87,1.07-2.7,0-3.54-2.28-1.8-5.39-2.36-7.97-.74-.14.09-.28.18-.42.28-.92-.88-2.07-1.45-3.31-1.89-3.68-1.27-7.53-2.15-11.36-2.81-4.01-.69-8.17-1.26-12.25-1.15-4.04.11-7.64,1.35-11.28,3.04-2.13,1-4.25,2.02-6.37,3.04-1.84.88-3.32,1.98-4.02,3.97-.36,1.03.24,2.3,1.15,2.82.04.02.09.05.13.07.03.02.05.03.08.04.02.01.03.02.05.03-1.1,5.96-6.52,9.81-7.5,16.01-1.31,8.28,1.65,15.51,4.22,22.93.75,1.18,1.5,2.37,2.25,3.56-.62.71-.86,1.73-.26,2.79,1.54,2.74,4.24,4.29,7.1,5.35.68.25,1.4.47,2.13.69,1.15,2.25,3.93,3.26,6.29,3.91,3.18.87,6.52,1.17,9.79.88.17-.02.33-.04.49-.08,6.62,1.35,13.7,0,19.37-3.77.63.16,1.26.3,1.9.4,2.6.4,5.4.29,7.6-1.33,2.48-1.84.57-5.4-2.21-4.45-.11.04-.21.08-.32.13-1,.47-2,.91-3.11.7-.05-.05-.1-.1-.15-.14.02.03.03.06.03.08-.02-.02-.06-.08-.12-.18.03.03.06.06.09.09-.06-.28,0-.63.02-.91.05-.59.15-1.15.2-1.72,1.73-1.2,3.34-2.55,4.79-4.02.16-.16.31-.32.47-.48.49-.52.97-1.06,1.43-1.62.15-.17.3-.35.44-.54.18-.23.36-.46.53-.69.11-.14.21-.28.31-.43.29-.39.55-.78.82-1.18.11-.18.23-.36.34-.55.56-.89,1.06-1.8,1.5-2.73.12-.24.23-.48.34-.72,0-.02,0-.04.02-.06.13-.29.26-.59.38-.89.24-.61.46-1.23.66-1.85l.15-.51c.07-.23.14-.47.2-.7.01-.03.01-.05.02-.07.08-.32.16-.64.23-.96.08-.36.15-.71.21-1.07.03-.17.06-.34.08-.51.07-.4.12-.8.16-1.2.03-.25.05-.51.07-.76,0-.08,0-.17.02-.25.01-.24.03-.48.03-.72.07-1.9-.08-3.85-.48-5.8ZM175.45,136.56c-.57-.2-1.13-.41-1.68-.63-.29-.09-.59-.17-.89-.23.04-.04.07-.07.11-.11.85.27,1.68.56,2.46.97h.02s.03.02.05.03c-.02,0-.05-.02-.07-.03ZM186.4,139.63c-.42-.19-.84-.37-1.26-.56.43.15.86.28,1.3.4-.01.05-.03.11-.04.16Z"/>
        <path class="ralph-cls-5" d="M179.94,98.76c3.22,0,3.22-5,0-5s-3.22,5,0,5h0Z"/>
        <path class="ralph-cls-5" d="M180.54,103.04c-.1,3.14-.05,6.54,1.01,9.53.57,1.6,1.48,3.09,3,3.94,1.41.78,3.05.96,4.64.99,3.08.07,6.39-.54,8.99-2.28,2.34-1.57,4.35-3.99,4.83-6.84.58-3.45-.63-6.71-3.45-8.82-1.08-.81-2.79-.18-3.42.9-.75,1.28-.19,2.61.9,3.42-.32-.24.33.35.4.43-.27-.31.19.29.24.38s.35.8.21.4c.11.31.19.63.26.95.11.49.04-.23.03.32,0,.33.01.66-.03.99.06-.48-.06.21-.09.31s-.33.93-.2.63c-.95,2.12-2.78,3.31-5.21,3.89-1.29.31-2.64.37-4.08.29.02,0-.76-.06-.48-.02-.35-.05-.78-.12-1.1-.28.29.14-.34-.25-.08-.08-.24-.16-.2-.2-.41-.57-.41-.71-.7-2.38-.83-3.49-.19-1.66-.18-3.33-.13-5,.04-1.35-1.18-2.5-2.5-2.5-1.39,0-2.46,1.15-2.5,2.5h0Z"/>
        <path class="ralph-cls-65" d="M225.59,103c-7.34,5.23-16.49,6.27-25.25,6.71-9.55.48-19.24.78-28.75-.52-5.42-.74-10.75-2.06-15.83-4.1-1.79-.72-2.57,2.18-.8,2.89,9.35,3.77,19.48,4.94,29.5,5.09,4.95.07,9.9-.09,14.84-.31,4.55-.21,9.12-.54,13.6-1.42,5.05-.99,9.98-2.75,14.2-5.76,1.56-1.11.06-3.71-1.51-2.59h0Z"/>
        <path class="ralph-cls-58" d="M322.68,95.5c-.1-.66-.23-1.31-.37-1.96.07-.35-.03-.7-.23-1-1.85-7.28-6.29-13.37-11.61-18.71-1.36-1.37-3.49.75-2.12,2.12,4.82,4.84,8.86,10.26,10.68,16.79-2.66,2.12-5.81,3.51-9.01,4.62-3.89,1.35-7.86,2.5-11.84,3.52-8.05,2.07-16.32,3.39-24.65,3.05-4.67-.19-9.29-.94-13.76-2.32-.61-7.92,2.34-15.8,7.94-21.46,1.36-1.37-.76-3.5-2.12-2.12-10.38,10.49-11.83,27.38-3.07,39.35,2.58,3.53,5.75,6.53,8.95,9.5,1.41,1.31,3.54-.8,2.12-2.12-3.26-3.03-6.6-6.09-9.12-9.79-2.07-3.05-3.52-6.5-4.25-10.11,16.48,4.64,34.13.98,50-4.39,3.35-1.13,6.61-2.52,9.51-4.53,1.19,7.62-.83,15.43-5.26,21.7-1.12,1.58,1.48,3.08,2.59,1.51,4.83-6.85,6.85-15.37,5.62-23.66Z"/>
      </g>
    </g>
  </g>
</svg>
