<?xml version="1.0" encoding="UTF-8"?>
<svg id="Layer_2" data-name="Layer 2" xmlns="http://www.w3.org/2000/svg" viewBox="0 0 218.89 383.71">
  <g id="Layer_1-2" data-name="Layer 1">
    <path d="M33.7,110.86c-2.13-3.33-4.85-7.91-7.92-12.23-1.05-1.48-2.88-2.57-4.55-3.44-6.99-3.67-11.7-8.83-11.32-17.2.09-2.05.61-4.57,1.9-5.98,3.12-3.4,4.01-7.38,4.73-11.68,2.47-14.84,9.83-27.26,19.45-38.52-13.03,10.51-23.24,22.83-25.13,40.52-.7-.2-1.4-.41-2.1-.61.62-3.84.71-7.87,1.94-11.5,5.81-17.11,18.03-28.78,33.05-37.93C57.46,3.94,72.37.93,88.39.13c34.39-1.71,60.9,13.35,83.98,36.76,2.15,2.19,3.79,4.88,5.67,7.34-.4.41-.8.81-1.2,1.22-3.08-3.01-6.15-6.02-9.06-8.86,1.43,6.57,3.45,13.04,4.09,19.65.58,6.03.1,12.26-.75,18.29-.66,4.68.08,8.52,3.07,12.05.75.89,1.41,1.86,2.12,2.77,7.93,10.17,6.58,16.95-4.94,22.54-4.14,2.01-8.78,3-13.15,4.58-1.11.4-2.47,1.09-2.96,2.03-1.63,3.15-2.93,6.48-4.48,10.04,1.59.77,4.07,1.5,5.95,2.99,2.26,1.79,4.51,3.95,5.9,6.43,5.43,9.65,9.71,20.05,15.92,29.16,12.55,18.43,19.65,38.71,23.2,60.44,1.44,8.8,1.26,8.83-2.34,13.4,1.58,1.71,3.21,3.51,4.88,5.28,2.71,2.87,6.46,5.47,4.91,10.11-1.69,5.06-5.51,7.74-10.86,7.33-.82,4.17-1.28,8.13-2.43,11.87-1.49,4.83-5.36,6.79-10.39,5.88-3.35-.61-10.6,4.7-10.47,7.98.61,14.89-.38,29.96,4.68,44.41.53,1.53.07,3.4.07,4.12,10.04,3.86,19.91,7.64,29.76,11.45.61.24,1.17.64,1.73.99,5.59,3.55,8.53,8.3,7.28,12.49-1.69,5.7-6.61,7.03-11.68,7.83-24.66,3.86-48.98,1.08-73.19-3.77-.43-.09-.9.04-1.3.07.51,2.7,1.42,5.25,1.38,7.79-.05,4.25-4.08,7.4-9.43,7.94-20.01,2.02-39.94.93-59.4-3.78-14.15-3.42-28.03-8.19-41.71-13.21-8.3-3.05-9.46-9.19-4.42-16.55.75-1.09,1.62-2.09,2.88-3.69-6.11-2.19-4.26-6.49-3.23-10.95,4.28-18.58,5.82-37.41,4.05-56.41-.31-3.32-1.88-6.63-3.36-9.71-4.54-9.4-9.52-18.59-13.88-28.06-1.41-3.07-1.5-6.76-2.11-10.19-1.14-6.38-4.09-13.14-2.95-19.1,2.92-15.15,2.04-31.65,13.24-44.47,1.09-1.25.73-3.9.8-5.9.2-5.57-.61-11.38.74-16.64.84-3.29,4.4-6.71,7.61-8.35,3.18-1.62,4.19-3.57,5.06-6.57,1.71-5.94,3.82-11.75,6-18.29ZM108.92,351.96c.49-5.96,6-10.43,2.06-16.4-.45-.69.4-2.19.53-3.32.74-6.38,1.5-12.76,2.14-19.15.4-4-.96-6.09-5.59-5.74-3.91.3-7.91-.25-11.85-.66-2.72-.29-4.74.2-4.73,3.34,0,6.84-.2,13.72.41,20.51.46,5.21,2.04,10.32,3.34,16.56,3.33,1.18,8.13,2.89,13.68,4.86Z" style="stroke-width: 0px;"/>
  </g>
</svg>