<?xml version="1.0" encoding="UTF-8"?>
<svg id="Layer_2" data-name="Layer 2" xmlns="http://www.w3.org/2000/svg" viewBox="0 0 155.81 166.21">
  <g id="head">
    <polygon id="mouth" points="86.74 97.62 117.13 99 112.43 110.64 112.73 119.26 65.09 123 58.58 107.14 86.74 97.62" style="stroke-width: 0px;"/>
    <path d="M60.33,115.59c1.34-2.34,4.42-4.2,7.48-4.17,4.15.05,7.34,3.56,8.56,2.67.46-.33.15-.94.9-1.7.65-.64,1.6-.92,2.17-.98,2.73-.28,5.98,3.45,6.99,6.99.4,1.38.59,2.06.3,2.78-2.02,4.95-23.28,5.98-26.77-.15-1.35-2.36.25-5.25.36-5.45Z" style="fill: #d12327; stroke-width: 0px;"/>
    <path id="shirt_fill_under" data-name="shirt fill under" d="M106.76,142.93l-1.54-23.52,16.46,5.7s7.96,30.3,7.15,30.84-22.07-13.03-22.07-13.03Z" style="fill: #4f87af; stroke-width: 0px;"/>
    <g>
      <path id="Head_outline" data-name="Head outline" d="M98.14,157.62l-57.77-27.14-10.49-17.73s-2.77-6.39-5.91-12.9-7.48-34.61-7.48-34.61c0,0-3.38-22.31,10.01-36.42S54.41,4.91,77.27,1.43c24.6-3.74,46.24,8.62,54.75,21,10.85,15.8,7.6,47.02,7.6,47.02,0,0,18.69,16.16,14.95,22.55-1.12,1.92-5.83,6.79-15.56,8.32-22.63,3.57-60.78,2.77-60.78,2.77,0,0-13.15.72-14.11,8.08s3.38,7.36,3.38,7.36c0,0,25.57-1.81,29.79-2.17s12.78-1.21,12.78-1.21c0,0-2.77-3.14-2.77-4.46s4.1-7.24,4.1-7.24l8.08-.72s-5.07,6.27-4.58,7.84,5.55,3.86,3.62,8.32-9.53,5.79-9.53,5.79l.84,35.58-11.7-2.65Z" style="fill: #f8db26; stroke-width: 0px;"/>
      <path d="M110.61,161.21l-12.79-2.92-57.98-27.23-10.61-17.93c-.07-.15-2.85-6.54-5.94-12.96-3.15-6.54-7.36-33.67-7.54-34.82-.03-.23-3.28-22.84,10.21-37.05C41.36,12.06,56.67,3.81,77.16.69c24.28-3.69,46.29,7.93,55.48,21.32,10.36,15.07,8.12,43.31,7.76,47.13,2.96,2.59,18.61,16.77,14.82,23.24-1.37,2.34-6.5,7.17-16.09,8.68-5.6.88-12.18,1.5-18.9,1.93l-.17.22c-2.54,3.15-4.58,6.42-4.45,7.16.08.27.64.81,1.12,1.28,1.61,1.56,4.03,3.93,2.46,7.55-1.75,4.04-7.51,5.66-9.45,6.1l.85,35.91ZM98.38,156.9l10.68,2.42-.84-35.26.64-.11c.07-.01,7.22-1.31,8.97-5.35,1.16-2.68-.59-4.38-2.13-5.88-.73-.71-1.31-1.28-1.51-1.92-.44-1.43,1.89-4.86,3.64-7.16l-6,.54c-1.83,2.66-3.74,5.83-3.77,6.52,0,.62,1.34,2.55,2.59,3.96l.97,1.1-1.46.14c-.09,0-8.62.85-12.79,1.21-4.18.36-29.54,2.15-29.8,2.17-.11,0-1.67-.01-2.89-1.41-1.25-1.43-1.69-3.72-1.28-6.8,1.03-7.88,14.25-8.7,14.81-8.73.44,0,38.4.75,60.71-2.77,9.04-1.43,13.78-5.83,15.03-7.96,2.81-4.8-9.73-17.23-14.8-21.61l-.3-.26.04-.39c.03-.31,3.1-31.13-7.47-46.51C122.69,10.18,100.8-1.39,77.39,2.18c-20.13,3.06-35.19,11.18-50.34,27.15-12.97,13.67-9.85,35.57-9.81,35.79.04.28,4.36,28.06,7.41,34.4,3.11,6.45,5.89,12.87,5.92,12.93l10.33,17.45,57.49,27ZM78.22,103.85c-.07,0-12.48.77-13.35,7.43-.34,2.57-.03,4.5.9,5.58.76.89,1.7.92,1.74.92.19-.02,25.55-1.81,29.72-2.17,3.14-.27,8.75-.81,11.36-1.07-.91-1.15-2.04-2.8-2.04-3.85,0-1.32,2.69-5.41,3.92-7.21-16.82.66-32.01.36-32.25.36Z" style="stroke-width: 0px;"/>
    </g>
    <path id="ear_left_fill" data-name="ear left fill" d="M25.65,69.09c-.87-1.14-4.07-5.1-7.72-4.7-5.09.56-8.32,9.33-6.75,15.68.28,1.13,1.18,4.79,4.58,6.75,2.24,1.29,5.76,1.97,8.44.24,1.87-1.21,2.57-3.1,3.02-4.34,2.08-5.86-.55-11.64-1.57-13.63Z" style="fill: #f8db26; stroke-width: 0px;"/>
    <path id="Eye_left_fill" data-name="Eye left fill" d="M86.13,47.15c1.73.57,4.25,1.68,6.7,3.98.02.02.28.26.55.53,1.97,2.02,4.11,5.42,4.88,8.99.12.6,1.78,9.07-3.98,15.56-5.66,6.37-14.97,6.92-21.59,4.22-5.9-2.4-12.52-8.53-12.18-16.16.23-5.38,3.89-10.51,8.32-12.9,6.2-3.35,12.27-.41,15.59-4.35l1.71.13Z" style="fill: #fff; stroke-width: 0px;"/>
    <path id="Eye_right_fill" data-name="Eye right fill" d="M124.12,44.43c9.43,5.33,13.98,3.81,17.46,7.96,3.11,3.71,3.36,9.53,1.63,13.84-2.44,6.11-8.43,8.21-10.04,8.78-1.15.4-3.96,1.35-7.6.9-.94-.12-8.63-1.2-12.21-8.05-4.04-7.72.9-15.57,1.54-16.55,2.54-3.9,6.02-5.8,7.78-6.61,0,0,.56-.19,1.29-.36l.15.09Z" style="fill: #fff; stroke-width: 0px;"/>
    <path d="M127.48,76.77c-.63,0-1.3-.04-2-.12-1.49-.19-9.13-1.46-12.78-8.45-4.11-7.86.59-15.8,1.57-17.31,2.35-3.61,5.53-5.66,7.86-6.77-1.37-.84-2.7-1.75-3.98-2.72-.33-.25-.4-.72-.15-1.05.25-.33.72-.4,1.05-.15,1.72,1.3,3.55,2.5,5.44,3.56,4.4,2.49,7.72,3.45,10.38,4.23,2.96.86,5.31,1.55,7.28,3.9,3.53,4.21,3.38,10.52,1.75,14.6-1.71,4.26-5.23,7.36-10.49,9.2-.82.29-3.03,1.06-5.94,1.06ZM123.41,44.88c-.05.21-.2.4-.42.5-2.17.99-5.23,2.9-7.46,6.33-.9,1.39-5.23,8.67-1.5,15.8,3.31,6.32,10.28,7.48,11.64,7.65,3.54.44,6.24-.51,7.26-.87,4.83-1.7,8.06-4.5,9.59-8.35,1.47-3.68,1.63-9.34-1.51-13.08-1.68-2.01-3.62-2.57-6.55-3.43-2.74-.8-6.15-1.79-10.7-4.36-.12-.07-.23-.13-.35-.2Z" style="stroke-width: 0px;"/>
    <path id="nose_fill" data-name="nose fill" d="M109.65,73.55c1.9-.77,4.88-1.72,8.64-1.85,2.34-.08,3.74-.12,5.16.72,2.97,1.76,4.39,6.37,2.94,9.77-1.02,2.39-3.16,3.48-5.02,4.43-3.81,1.95-7.45,1.91-9.27,1.76l-2.44-14.83Z" style="fill: #f8db26; stroke-width: 0px;"/>
    <g id="ear_outline" data-name="ear outline">
      <path d="M22.16,74.79c-.24,0-.48-.11-.62-.33-.03-.04-.96-1.34-2.68-1.61-1.51-.23-3.21.36-5.04,1.78-.33.25-.8.19-1.05-.14-.25-.33-.19-.8.14-1.05,2.19-1.68,4.28-2.38,6.22-2.07,2.38.38,3.61,2.17,3.66,2.24.23.34.14.81-.2,1.04-.13.09-.27.13-.42.13Z" style="stroke-width: 0px;"/>
      <path d="M21.63,81.46c-.96,0-5.15-.18-5.79-3.33-.63-3.12.65-5.63.7-5.74.19-.37.65-.51,1.01-.32.37.19.51.64.32,1.01,0,.02-1.09,2.17-.56,4.75.45,2.23,4.41,2.12,4.45,2.12.39-.04.76.31.78.72.01.41-.31.76-.72.78-.02,0-.09,0-.19,0Z" style="stroke-width: 0px;"/>
    </g>
    <path d="M20.54,88.87c-2.62,0-4.81-1.2-5.15-1.4-2.44-1.41-4.1-3.84-4.94-7.22-1.05-4.27-.07-9.71,2.39-13.23,1.4-2,3.13-3.17,5.01-3.38,3.84-.42,7.15,3.35,8.4,5,.25.33.19.8-.14,1.05-.33.25-.8.19-1.05-.14-1.09-1.44-3.97-4.75-7.04-4.41-1.81.2-3.14,1.6-3.94,2.75-2.19,3.14-3.1,8.19-2.16,12.01.27,1.11,1.1,4.48,4.23,6.28.17.1,4.32,2.45,7.66.26,1.74-1.14,2.44-2.94,2.7-3.91.11-.4.52-.64.92-.53.4.11.64.52.53.92-.32,1.18-1.17,3.36-3.33,4.77-1.35.88-2.76,1.18-4.07,1.18Z" style="stroke-width: 0px;"/>
    <path d="M80.68,82.7c-2.97,0-5.85-.59-8.28-1.58-6.33-2.58-12.99-8.96-12.65-16.89.23-5.33,3.82-10.89,8.72-13.53,3.07-1.66,6.07-1.85,8.71-2.01,2.9-.18,5.19-.33,6.74-2.26,1.02-1.26,1.49-3,1.4-5.17-.02-.41.31-.76.72-.78.43-.02.76.31.78.72.08,2.13-.31,3.93-1.18,5.37.19-.17.47-.23.72-.14,2.62.87,4.96,2.26,6.97,4.15.03.03.3.28.57.56,1.91,1.95,4.24,5.44,5.08,9.36.08.38,1.91,9.38-4.15,16.21-3.82,4.3-9.12,6-14.15,6ZM85.42,46.94c-.1.15-.21.29-.32.43-1.96,2.44-4.8,2.62-7.81,2.81-2.49.16-5.32.34-8.1,1.84-4.46,2.4-7.72,7.45-7.93,12.28-.3,6.88,5.67,12.97,11.71,15.43,6.08,2.47,15.16,2.27,20.74-4.02,5.56-6.27,3.88-14.56,3.81-14.9-.77-3.61-3-6.9-4.68-8.62-.25-.25-.5-.49-.52-.51-1.85-1.73-4.01-3.02-6.42-3.82-.38-.13-.6-.53-.49-.92Z" style="stroke-width: 0px;"/>
    <path d="M113.6,89.2c-.52,0-1.04-.02-1.56-.06-.41-.03-.72-.4-.69-.81.03-.41.39-.71.81-.69,3.14.25,6.21-.33,8.87-1.68,1.76-.9,3.76-1.92,4.67-4.06,1.3-3.04.04-7.25-2.63-8.83-1.2-.71-2.39-.7-4.75-.62-2.86.1-5.68.71-8.38,1.8-.39.15-.82-.03-.98-.41-.16-.38.03-.82.41-.98,2.86-1.16,5.85-1.8,8.89-1.91,2.28-.08,3.93-.14,5.56.83,3.33,1.97,4.84,6.97,3.25,10.71-1.13,2.64-3.48,3.84-5.37,4.81-2.46,1.26-5.24,1.91-8.11,1.91Z" style="stroke-width: 0px;"/>
    <circle cx="79.26" cy="66.21" r="2.49" style="stroke-width: 0px;"/>
    <circle cx="126.3" cy="60.69" r="2.49" style="stroke-width: 0px;"/>
  </g>
  <g id="shirt">
    <path id="shirt_fill" data-name="shirt fill" d="M128.83,155.96c-.29.19-3.13-1.38-6.69-3.49,0,0-16.41,13.35-28.95,13.71-12.54.36-46.43-2.53-61.27-9.28-14.77-6.73-14.8-31.49-14.8-31.69l9.05-20.08s2.35,7.59,6.24,9.4c3.89,1.81,19.99,8.69,28.94,10.68,8.96,1.99,18.09,3.34,18.09,3.34l18.73,29.49,10.01-14.2,13.5-18.72s7.96,30.3,7.15,30.84Z" style="fill: #4f87af; stroke-width: 0px;"/>
    <path d="M59.3,159.96c-2.21,0-19.62-11.31-28.19-18.35-9.58-7.86-14.43-15.69-14.64-16.02l-.21-.34,10.02-22.25.59,1.89c.02.07,2.3,7.3,5.84,8.95,4.46,2.07,20.2,8.71,28.79,10.62,8.83,1.96,17.95,3.32,18.04,3.34l.34.05,18.31,28.83,19.07-27.03c.24-.34.71-.42,1.04-.18.34.24.42.71.18,1.04l-20.36,28.87-19.14-30.14c-.12-.02-.26-.04-.43-.07-.04.34-.3.61-.63.66-1.36.87-6.94,10.88-10.65,17.53-6.39,11.47-7.11,12.49-7.91,12.59-.02,0-.04,0-.07,0ZM17.97,125.14c1.03,1.57,5.82,8.52,14.1,15.31,9.47,7.77,24.64,17.17,27,17.96.95-1.1,4.1-6.76,6.9-11.78,6.53-11.72,9.27-16.31,10.8-17.74-3.36-.55-9.54-1.61-15.58-2.95-8.72-1.94-24.6-8.64-29.1-10.73-2.95-1.37-5.02-5.64-6-8.09l-8.12,18.02Z" style="stroke-width: 0px;"/>
    <path d="M128.85,156.7c-.97,0-4.38-1.17-20.08-9.21-.37-.19-.51-.64-.33-1.01.19-.37.64-.51,1.01-.33,7.58,3.88,16.09,8.02,18.64,8.9-.47-3.66-4.4-19.32-7.04-29.39l-6.17-2.57c-.38-.16-.56-.6-.4-.98s.6-.56.98-.4l6.86,2.86.09.36c8.1,30.82,7.4,31.29,6.84,31.66-.08.06-.18.12-.4.12Z" style="stroke-width: 0px;"/>
  </g>
  <g id="hair">
    <path d="M74.65,34.42c-.3,0-.58-.18-.7-.48-1.51-3.88-2.68-7.91-3.47-11.98-1.22-6.3-1.56-12.76-1.01-19.2.04-.41.4-.72.81-.68.41.04.72.4.68.81-.54,6.3-.21,12.62.98,18.79.77,3.98,1.92,7.93,3.4,11.72.15.39-.04.82-.43.97-.09.03-.18.05-.27.05Z" style="stroke-width: 0px;"/>
    <path d="M87.95,33.51c-.32,0-.62-.21-.72-.54-1.7-5.69-3.97-11.25-6.73-16.51-2.56-4.88-5.58-9.56-8.97-13.91-.25-.33-.2-.8.13-1.05.33-.25.8-.2,1.05.13,3.45,4.42,6.52,9.18,9.12,14.13,2.81,5.35,5.11,10.99,6.84,16.78.12.4-.11.81-.5.93-.07.02-.14.03-.22.03Z" style="stroke-width: 0px;"/>
    <path d="M104.95,31.25c-.3,0-.58-.18-.7-.47-2.46-6.16-5.88-11.11-10.19-14.72-1.25-1.05-2.25-1.71-5.96-4.16l-2.66-1.76c-4.94-3.27-8.92-5.96-11.49-7.69-.34-.23-.43-.7-.2-1.04s.7-.43,1.04-.2c2.56,1.73,6.55,4.41,11.48,7.69l2.66,1.76c3.76,2.49,4.78,3.16,6.09,4.26,4.5,3.77,8.07,8.92,10.62,15.31.15.38-.03.82-.42.97-.09.04-.19.05-.28.05Z" style="stroke-width: 0px;"/>
    <path d="M119.61,31.97c-.25,0-.49-.12-.64-.35-4.44-7.1-10.07-13.24-16.73-18.25-9.93-7.47-20.03-9.88-25.46-11.18-.4-.1-.65-.5-.56-.9.1-.4.5-.65.9-.56,5.53,1.32,15.84,3.77,26.02,11.44,6.81,5.13,12.56,11.4,17.1,18.65.22.35.11.81-.24,1.03-.12.08-.26.11-.4.11Z" style="stroke-width: 0px;"/>
    <path d="M133.47,32.46c-.15,0-.3-.04-.43-.14-3.02-2.12-5.79-5.27-8.72-8.6-4.49-5.1-9.58-10.87-16.6-13.97-6.23-2.75-12.76-4.21-18.52-5.5-2.4-.54-4.67-1.04-6.79-1.61-.4-.11-.64-.52-.53-.92.11-.4.52-.64.92-.53,2.09.56,4.34,1.06,6.73,1.6,5.83,1.3,12.44,2.78,18.8,5.59,7.32,3.23,12.53,9.14,17.12,14.35,2.87,3.26,5.59,6.34,8.46,8.37.34.24.42.71.18,1.05-.15.21-.38.32-.61.32Z" style="stroke-width: 0px;"/>
    <path d="M148.46,26.82c-.16,0-.32-.05-.45-.15-7.9-5.96-16.44-11.11-25.37-15.3-10.94-5.13-21.85-6.77-30.61-8.09-2.16-.33-4.21-.63-6.11-.97-.41-.07-.68-.46-.61-.87.07-.41.46-.68.87-.61,1.88.33,3.92.64,6.07.96,8.86,1.33,19.88,2.99,31.02,8.21,9.03,4.24,17.66,9.44,25.64,15.46.33.25.4.72.15,1.05-.15.2-.37.3-.6.3Z" style="stroke-width: 0px;"/>
    <path d="M152.62,22.2c-.15,0-.29-.04-.42-.13-7.88-5.38-16.36-9.89-25.18-13.4-14.35-5.71-28.76-6.05-39.29-6.31-1.84-.04-3.56-.09-5.15-.15-.41-.02-.74-.37-.72-.78s.34-.74.78-.72c1.58.07,3.29.11,5.12.15,10.64.26,25.21.61,39.81,6.41,8.93,3.55,17.5,8.11,25.47,13.55.34.23.43.7.2,1.04-.14.21-.38.33-.62.33Z" style="stroke-width: 0px;"/>
    <path d="M56.92,42.19h-.01c-.41,0-.74-.35-.74-.76.14-7.14,1.03-14.29,2.64-21.23,1.63-7,4.04-12.58,5.98-17.06.16-.38.61-.56.99-.39.38.16.56.61.39.99-1.92,4.43-4.3,9.93-5.9,16.81-1.59,6.84-2.47,13.88-2.6,20.92,0,.41-.34.74-.75.74Z" style="stroke-width: 0px;"/>
    <path d="M45.43,47.8s-.05,0-.08,0c-.41-.04-.71-.41-.67-.82.75-7.52,2.34-14.97,4.74-22.14,2.43-7.26,5.93-12.53,9.03-17.17.79-1.18,1.54-2.31,2.23-3.41.22-.35.68-.46,1.03-.24.35.22.46.68.24,1.03-.7,1.11-1.46,2.25-2.25,3.44-3.04,4.57-6.49,9.74-8.85,16.81-2.36,7.06-3.93,14.4-4.67,21.82-.04.39-.36.68-.75.68Z" style="stroke-width: 0px;"/>
    <path d="M31.23,69.6c-.4,0-.74-.32-.75-.73-.26-9.73,1.03-19.33,3.83-28.55,5.2-17.1,15.13-27.38,21.07-33.53l1-1.04c.29-.3.76-.31,1.06-.02.3.29.31.76.02,1.06l-1,1.04c-6.22,6.44-15.62,16.17-20.71,32.92-2.76,9.06-4.02,18.51-3.77,28.07.01.41-.32.76-.73.77,0,0-.01,0-.02,0Z" style="stroke-width: 0px;"/>
    <path d="M19.65,64.63c-.41,0-.74-.33-.75-.74-.09-5.55.49-11.09,1.74-16.46,1.04-4.5,3.82-16.46,13.83-27.82,6.11-6.93,13.19-10.27,18.35-12.71l1.33-.63c.37-.18.82-.02,1,.35.18.37.02.82-.35,1l-1.34.63c-5.05,2.38-11.97,5.64-17.87,12.35-9.76,11.08-12.47,22.77-13.49,27.17-1.22,5.26-1.79,10.68-1.7,16.1,0,.41-.32.76-.74.76h-.01Z" style="stroke-width: 0px;"/>
    <path d="M.75,63.45c-.06,0-.12,0-.18-.02-.4-.1-.65-.51-.55-.91,2.36-9.51,6.32-18.35,11.78-26.29C23.67,18.95,43.19,10.74,51.52,7.23l.63-.26c.38-.16.82.02.98.4.16.38-.02.82-.4.98l-.63.27c-8.21,3.46-27.45,11.55-39.07,28.46-5.36,7.79-9.25,16.48-11.56,25.81-.08.34-.39.57-.73.57Z" style="stroke-width: 0px;"/>
  </g>
</svg>